<?xml version="1.0" encoding="utf-8"?>
<!-- Generator: Adobe Illustrator 27.5.0, SVG Export Plug-In . SVG Version: 6.00 Build 0)  -->
<svg version="1.1" id="Layer_1" xmlns="http://www.w3.org/2000/svg" xmlns:xlink="http://www.w3.org/1999/xlink" x="0px" y="0px"
	 viewBox="0 0 612 334.6" style="enable-background:new 0 0 612 334.6;" xml:space="preserve">
<style type="text/css">
	.st0{enable-background:new    ;}
	.st1{fill:#08134B;}
	.st2{fill:#FFFFFF;}
	.st3{fill:#051EA3;}
</style>
<g class="st0">
	<path class="st1" d="M8,66.6H1.4V55.4h1.3v10H8V66.6z"/>
	<path class="st1" d="M9.1,59.2c0.4-0.2,0.9-0.4,1.4-0.5s1.1-0.2,1.7-0.2c0.6,0,1,0.1,1.3,0.2s0.6,0.3,0.8,0.6
		c0.2,0.2,0.3,0.5,0.4,0.8s0.1,0.6,0.1,0.9c0,0.6,0,1.3,0,1.9c0,0.6,0,1.2,0,1.7c0,0.4,0,0.8,0,1.1c0,0.4,0.1,0.7,0.2,1h-0.9
		l-0.3-1.1h-0.1c-0.1,0.1-0.2,0.3-0.4,0.4c-0.1,0.1-0.3,0.3-0.5,0.4c-0.2,0.1-0.4,0.2-0.7,0.3c-0.3,0.1-0.6,0.1-0.9,0.1
		s-0.7-0.1-1-0.2s-0.5-0.3-0.8-0.5c-0.2-0.2-0.4-0.4-0.5-0.7c-0.1-0.3-0.2-0.6-0.2-0.9c0-0.5,0.1-0.9,0.3-1.2
		c0.2-0.3,0.5-0.6,0.8-0.8c0.3-0.2,0.8-0.3,1.2-0.4s1-0.1,1.6-0.1c0.1,0,0.3,0,0.4,0s0.3,0,0.4,0c0-0.3,0-0.6,0-0.9
		c0-0.6-0.1-1-0.4-1.2c-0.2-0.2-0.7-0.4-1.3-0.4c-0.2,0-0.4,0-0.6,0s-0.4,0.1-0.6,0.1s-0.4,0.1-0.6,0.2s-0.4,0.2-0.5,0.2L9.1,59.2z
		 M11.3,65.6c0.3,0,0.6,0,0.8-0.1c0.2-0.1,0.4-0.2,0.6-0.3c0.2-0.1,0.3-0.3,0.4-0.4s0.2-0.3,0.2-0.4V63c-0.1,0-0.3,0-0.5,0
		c-0.2,0-0.3,0-0.5,0c-0.3,0-0.7,0-1,0.1c-0.3,0-0.6,0.1-0.8,0.2c-0.2,0.1-0.4,0.2-0.6,0.4c-0.1,0.2-0.2,0.4-0.2,0.7
		c0,0.4,0.1,0.7,0.4,0.9C10.6,65.5,10.9,65.6,11.3,65.6z"/>
	<path class="st1" d="M20.9,59.8c-0.3-0.1-0.6-0.2-0.9-0.2c-0.5,0-0.8,0.1-1.1,0.4s-0.4,0.6-0.5,1v5.6h-1.3v-8H18l0.2,1h0.1
		c0.2-0.4,0.4-0.6,0.7-0.8c0.3-0.2,0.6-0.3,1.1-0.3c0.3,0,0.7,0.1,1,0.2L20.9,59.8z"/>
	<path class="st1" d="M28.7,67c0,1-0.3,1.8-0.8,2.3c-0.5,0.5-1.4,0.7-2.4,0.7c-0.6,0-1.2,0-1.5-0.1c-0.4-0.1-0.7-0.2-1-0.3l0.3-1.1
		c0.2,0.1,0.5,0.2,0.8,0.3c0.3,0.1,0.7,0.1,1.2,0.1c0.4,0,0.8,0,1.1-0.1s0.5-0.2,0.7-0.4c0.2-0.2,0.3-0.4,0.4-0.7
		c0.1-0.3,0.1-0.6,0.1-1v-0.8h-0.1c-0.2,0.3-0.5,0.5-0.8,0.7s-0.8,0.2-1.3,0.2c-1.1,0-1.9-0.3-2.4-1c-0.5-0.7-0.8-1.7-0.8-3.1
		c0-1.4,0.3-2.4,1-3.1c0.7-0.7,1.6-1.1,2.9-1.1c0.6,0,1.1,0,1.6,0.1c0.4,0.1,0.8,0.2,1.2,0.3V67z M25.5,65.7c0.5,0,1-0.1,1.3-0.4
		c0.3-0.3,0.5-0.7,0.7-1.3v-4.1c-0.4-0.2-1-0.3-1.6-0.3c-0.7,0-1.3,0.2-1.7,0.7c-0.4,0.5-0.6,1.3-0.6,2.3c0,0.4,0,0.9,0.1,1.2
		c0.1,0.4,0.2,0.7,0.4,1c0.2,0.3,0.4,0.5,0.6,0.6C24.8,65.6,25.1,65.7,25.5,65.7z"/>
	<path class="st1" d="M37,66c-0.3,0.3-0.7,0.5-1.2,0.6s-1,0.2-1.5,0.2c-0.6,0-1.1-0.1-1.6-0.3c-0.4-0.2-0.8-0.5-1.1-0.8
		c-0.3-0.4-0.5-0.8-0.6-1.3c-0.1-0.5-0.2-1.1-0.2-1.7c0-1.4,0.3-2.4,0.9-3.1c0.6-0.7,1.5-1.1,2.6-1.1c0.4,0,0.7,0,1.1,0.1
		c0.4,0.1,0.7,0.2,1,0.5c0.3,0.2,0.5,0.5,0.7,1c0.2,0.4,0.3,1,0.3,1.6c0,0.4,0,0.7-0.1,1.2H32c0,0.5,0,0.9,0.1,1.2
		c0.1,0.4,0.2,0.7,0.4,0.9c0.2,0.3,0.5,0.4,0.8,0.6c0.3,0.1,0.7,0.2,1.2,0.2c0.4,0,0.7-0.1,1.1-0.2s0.6-0.3,0.8-0.4L37,66z
		 M34.2,59.5c-0.6,0-1.1,0.2-1.5,0.5c-0.4,0.3-0.6,0.9-0.7,1.7h4c0-0.8-0.2-1.4-0.5-1.7S34.8,59.5,34.2,59.5z"/>
	<path class="st1" d="M45,64.6c0,0.4,0.1,0.6,0.2,0.8s0.3,0.2,0.5,0.2c0.1,0,0.3,0,0.4,0c0.2,0,0.3-0.1,0.5-0.1l0.1,1
		c-0.2,0.1-0.4,0.2-0.7,0.2c-0.3,0.1-0.6,0.1-0.8,0.1c-0.5,0-0.9-0.1-1.2-0.4c-0.3-0.3-0.5-0.7-0.5-1.4v-9.6H45V64.6z"/>
	<path class="st1" d="M54.1,66c-0.3,0.3-0.7,0.5-1.2,0.6s-1,0.2-1.5,0.2c-0.6,0-1.1-0.1-1.6-0.3c-0.4-0.2-0.8-0.5-1.1-0.8
		c-0.3-0.4-0.5-0.8-0.6-1.3c-0.1-0.5-0.2-1.1-0.2-1.7c0-1.4,0.3-2.4,0.9-3.1c0.6-0.7,1.5-1.1,2.6-1.1c0.4,0,0.7,0,1.1,0.1
		c0.4,0.1,0.7,0.2,1,0.5c0.3,0.2,0.5,0.5,0.7,1c0.2,0.4,0.3,1,0.3,1.6c0,0.4,0,0.7-0.1,1.2h-5.1c0,0.5,0,0.9,0.1,1.2
		c0.1,0.4,0.2,0.7,0.4,0.9c0.2,0.3,0.5,0.4,0.8,0.6c0.3,0.1,0.7,0.2,1.2,0.2c0.4,0,0.7-0.1,1.1-0.2s0.6-0.3,0.8-0.4L54.1,66z
		 M51.3,59.5c-0.6,0-1.1,0.2-1.5,0.5c-0.4,0.3-0.6,0.9-0.7,1.7h4c0-0.8-0.2-1.4-0.5-1.7S51.9,59.5,51.3,59.5z"/>
	<path class="st1" d="M61.5,66.6v-4.6c0-0.8-0.1-1.5-0.4-1.9c-0.2-0.4-0.7-0.6-1.3-0.6c-0.6,0-1,0.2-1.4,0.5
		c-0.4,0.3-0.6,0.7-0.8,1.1v5.5h-1.3v-8h0.9l0.2,1h0.1c0.3-0.3,0.6-0.6,1-0.8c0.4-0.2,0.9-0.3,1.5-0.3c0.4,0,0.8,0.1,1.2,0.2
		c0.3,0.1,0.6,0.3,0.8,0.5s0.4,0.6,0.5,1c0.1,0.4,0.2,1,0.2,1.6v4.8H61.5z"/>
	<path class="st1" d="M71.2,63.9c0,0.5,0,1,0,1.5c0,0.4,0.1,0.9,0.1,1.3h-0.9l-0.3-1.1h-0.1c-0.2,0.4-0.5,0.7-0.9,0.9
		s-0.9,0.4-1.4,0.4c-1.1,0-1.9-0.3-2.4-1c-0.5-0.7-0.8-1.7-0.8-3.2c0-1.4,0.3-2.4,1-3.1c0.6-0.7,1.5-1.1,2.7-1.1
		c0.4,0,0.7,0,0.9,0.1c0.2,0,0.5,0.1,0.7,0.2v-3.3h1.3V63.9z M68,65.7c0.5,0,1-0.1,1.3-0.4c0.3-0.3,0.5-0.7,0.7-1.3v-4
		c-0.2-0.1-0.4-0.3-0.7-0.3c-0.2-0.1-0.6-0.1-1-0.1c-0.7,0-1.3,0.2-1.7,0.7S66,61.6,66,62.6c0,0.4,0,0.8,0.1,1.2s0.2,0.7,0.3,1
		s0.4,0.5,0.6,0.6C67.3,65.6,67.6,65.7,68,65.7z"/>
	<path class="st1" d="M79.6,66c-0.3,0.3-0.7,0.5-1.2,0.6s-1,0.2-1.5,0.2c-0.6,0-1.1-0.1-1.6-0.3c-0.4-0.2-0.8-0.5-1.1-0.8
		c-0.3-0.4-0.5-0.8-0.6-1.3c-0.1-0.5-0.2-1.1-0.2-1.7c0-1.4,0.3-2.4,0.9-3.1c0.6-0.7,1.5-1.1,2.6-1.1c0.4,0,0.7,0,1.1,0.1
		c0.4,0.1,0.7,0.2,1,0.5c0.3,0.2,0.5,0.5,0.7,1c0.2,0.4,0.3,1,0.3,1.6c0,0.4,0,0.7-0.1,1.2h-5.1c0,0.5,0,0.9,0.1,1.2
		c0.1,0.4,0.2,0.7,0.4,0.9c0.2,0.3,0.5,0.4,0.8,0.6c0.3,0.1,0.7,0.2,1.2,0.2c0.4,0,0.7-0.1,1.1-0.2s0.6-0.3,0.8-0.4L79.6,66z
		 M76.8,59.5c-0.6,0-1.1,0.2-1.5,0.5c-0.4,0.3-0.6,0.9-0.7,1.7h4c0-0.8-0.2-1.4-0.5-1.7S77.4,59.5,76.8,59.5z"/>
	<path class="st1" d="M85.6,59.8c-0.3-0.1-0.6-0.2-0.9-0.2c-0.5,0-0.8,0.1-1.1,0.4s-0.4,0.6-0.5,1v5.6h-1.3v-8h0.9l0.2,1H83
		c0.2-0.4,0.4-0.6,0.7-0.8c0.3-0.2,0.6-0.3,1.1-0.3c0.3,0,0.7,0.1,1,0.2L85.6,59.8z"/>
	<path class="st1" d="M96.7,66.6v-4.6c0-0.8-0.1-1.5-0.4-1.9c-0.2-0.4-0.7-0.6-1.3-0.6c-0.6,0-1,0.2-1.4,0.5
		c-0.4,0.3-0.6,0.7-0.8,1.1v5.5h-1.3v-8h0.9l0.2,1h0.1c0.3-0.3,0.6-0.6,1-0.8c0.4-0.2,0.9-0.3,1.5-0.3c0.4,0,0.8,0.1,1.2,0.2
		c0.3,0.1,0.6,0.3,0.8,0.5s0.4,0.6,0.5,1c0.1,0.4,0.2,1,0.2,1.6v4.8H96.7z"/>
	<path class="st1" d="M106.1,66c-0.3,0.3-0.7,0.5-1.2,0.6s-1,0.2-1.5,0.2c-0.6,0-1.1-0.1-1.6-0.3c-0.4-0.2-0.8-0.5-1.1-0.8
		c-0.3-0.4-0.5-0.8-0.6-1.3c-0.1-0.5-0.2-1.1-0.2-1.7c0-1.4,0.3-2.4,0.9-3.1c0.6-0.7,1.5-1.1,2.6-1.1c0.4,0,0.7,0,1.1,0.1
		c0.4,0.1,0.7,0.2,1,0.5c0.3,0.2,0.5,0.5,0.7,1c0.2,0.4,0.3,1,0.3,1.6c0,0.4,0,0.7-0.1,1.2h-5.1c0,0.5,0,0.9,0.1,1.2
		c0.1,0.4,0.2,0.7,0.4,0.9c0.2,0.3,0.5,0.4,0.8,0.6c0.3,0.1,0.7,0.2,1.2,0.2c0.4,0,0.7-0.1,1.1-0.2s0.6-0.3,0.8-0.4L106.1,66z
		 M103.4,59.5c-0.6,0-1.1,0.2-1.5,0.5c-0.4,0.3-0.6,0.9-0.7,1.7h4c0-0.8-0.2-1.4-0.5-1.7S104,59.5,103.4,59.5z"/>
	<path class="st1" d="M107.4,58.6h1.2V57l1.3-0.4v2h2.2v1.1h-2.2v4.4c0,0.6,0.1,0.9,0.2,1.2c0.1,0.2,0.4,0.3,0.7,0.3
		c0.3,0,0.5,0,0.7-0.1c0.2-0.1,0.4-0.1,0.6-0.2l0.3,1c-0.3,0.1-0.6,0.3-0.9,0.3c-0.3,0.1-0.7,0.1-1.1,0.1c-0.7,0-1.1-0.2-1.4-0.6
		c-0.3-0.4-0.4-1-0.4-1.8v-4.7h-1.2V58.6z"/>
	<path class="st1" d="M119,58.6l1.8,4.7l0.4,1.5h0l0.3-1.6l1.4-4.6h1.2l-2.7,8.2h-0.6l-2.1-5.3l-0.3-1.3h0l-0.3,1.3l-2,5.3h-0.6
		l-2.8-8.2h1.4l1.6,4.7l0.3,1.6h0l0.4-1.6l1.7-4.6H119z"/>
	<path class="st1" d="M125,62.6c0-1.4,0.3-2.4,0.9-3.1c0.6-0.7,1.5-1.1,2.6-1.1c0.6,0,1.1,0.1,1.6,0.3c0.4,0.2,0.8,0.5,1.1,0.8
		s0.5,0.8,0.6,1.3s0.2,1.1,0.2,1.7c0,1.4-0.3,2.4-0.9,3.1c-0.6,0.7-1.5,1.1-2.6,1.1c-0.6,0-1.1-0.1-1.6-0.3
		c-0.4-0.2-0.8-0.5-1.1-0.8c-0.3-0.4-0.5-0.8-0.6-1.3C125.1,63.8,125,63.2,125,62.6z M126.3,62.6c0,0.4,0,0.8,0.1,1.2s0.2,0.7,0.4,1
		c0.2,0.3,0.4,0.5,0.7,0.7c0.3,0.2,0.6,0.3,1,0.3c1.5,0,2.2-1,2.2-3.1c0-0.4,0-0.8-0.1-1.2c-0.1-0.4-0.2-0.7-0.4-1
		c-0.2-0.3-0.4-0.5-0.7-0.7c-0.3-0.2-0.6-0.2-1-0.2C127,59.5,126.3,60.6,126.3,62.6z"/>
	<path class="st1" d="M137.8,59.8c-0.3-0.1-0.6-0.2-0.9-0.2c-0.5,0-0.8,0.1-1.1,0.4s-0.4,0.6-0.5,1v5.6H134v-8h0.9l0.2,1h0.1
		c0.2-0.4,0.4-0.6,0.7-0.8c0.3-0.2,0.6-0.3,1.1-0.3c0.3,0,0.7,0.1,1,0.2L137.8,59.8z"/>
	<path class="st1" d="M141.5,63h-0.7v3.6h-1.3V55.4h1.3v6.8l0.7-0.2l2.5-3.4h1.5l-2.4,3.2l-0.7,0.5l0.8,0.6l2.7,3.6h-1.6L141.5,63z"
		/>
</g>
<g class="st0">
	<path class="st1" d="M240,25.6V11.3h1.7v14.3H240z"/>
	<path class="st1" d="M250.4,14.7c1.3,0,2.2,0.3,2.9,0.9s1,1.6,1,3v7h-1.6v-6.9c0-0.9-0.2-1.6-0.6-2s-1-0.7-1.9-0.7
		c-1.2,0-2,0.3-2.5,1s-0.7,1.6-0.7,2.9v5.6h-1.6V14.9h1.3l0.2,1.5h0.1c0.2-0.4,0.5-0.7,0.9-1s0.7-0.5,1.2-0.6S249.9,14.7,250.4,14.7
		z"/>
	<path class="st1" d="M256.7,21v-1.4h4.8V21H256.7z"/>
	<path class="st1" d="M275.1,25.6h-1.7v-6.7h-7.5v6.7h-1.7V11.3h1.7v6.1h7.5v-6.1h1.7V25.6z"/>
	<path class="st1" d="M288,20.2c0,0.9-0.1,1.7-0.3,2.4s-0.6,1.3-1,1.7s-0.9,0.8-1.6,1.1s-1.3,0.4-2.1,0.4c-0.7,0-1.4-0.1-2-0.4
		s-1.1-0.6-1.5-1.1s-0.8-1.1-1-1.7s-0.4-1.5-0.4-2.4c0-1.2,0.2-2.2,0.6-3s1-1.5,1.7-1.9s1.6-0.6,2.6-0.6c1,0,1.8,0.2,2.6,0.7
		s1.3,1.1,1.7,1.9S288,19.1,288,20.2z M279.8,20.2c0,0.9,0.1,1.6,0.3,2.2s0.6,1.1,1.1,1.5s1.1,0.5,1.8,0.5c0.7,0,1.4-0.2,1.8-0.5
		s0.8-0.8,1.1-1.5s0.3-1.4,0.3-2.2c0-0.9-0.1-1.6-0.3-2.2s-0.6-1.1-1.1-1.4s-1.1-0.5-1.8-0.5c-1.1,0-1.9,0.4-2.4,1.1
		S279.8,18.9,279.8,20.2z"/>
	<path class="st1" d="M299.6,14.9v10.7h-1.3l-0.2-1.5H298c-0.2,0.4-0.5,0.7-0.9,0.9s-0.7,0.4-1.2,0.6s-0.9,0.2-1.4,0.2
		c-0.8,0-1.6-0.1-2.1-0.4s-1-0.7-1.3-1.3s-0.4-1.3-0.4-2.2v-7h1.6v6.9c0,0.9,0.2,1.6,0.6,2s1,0.7,1.8,0.7c0.8,0,1.4-0.1,1.9-0.4
		s0.8-0.7,1-1.3s0.3-1.3,0.3-2.1v-5.6H299.6z"/>
	<path class="st1" d="M310,22.7c0,0.7-0.2,1.3-0.5,1.7s-0.8,0.8-1.5,1s-1.4,0.4-2.3,0.4c-0.7,0-1.4-0.1-1.9-0.2s-1-0.3-1.4-0.5v-1.5
		c0.4,0.2,1,0.4,1.6,0.6s1.2,0.3,1.9,0.3c0.9,0,1.6-0.1,2-0.4s0.6-0.7,0.6-1.2c0-0.3-0.1-0.6-0.2-0.8s-0.4-0.4-0.8-0.7
		s-0.9-0.4-1.6-0.7c-0.7-0.3-1.3-0.5-1.8-0.8s-0.9-0.6-1.2-0.9s-0.4-0.9-0.4-1.4c0-0.9,0.4-1.6,1.1-2.1s1.7-0.7,2.9-0.7
		c0.6,0,1.2,0.1,1.8,0.2s1.1,0.3,1.6,0.5l-0.5,1.3c-0.4-0.2-0.9-0.3-1.4-0.5s-1-0.2-1.5-0.2c-0.7,0-1.3,0.1-1.7,0.4s-0.6,0.6-0.6,1
		c0,0.3,0.1,0.6,0.3,0.8s0.5,0.4,0.9,0.6s1,0.4,1.6,0.7c0.7,0.2,1.2,0.5,1.7,0.8s0.9,0.6,1.1,1S310,22.1,310,22.7z"/>
	<path class="st1" d="M316.7,14.7c0.9,0,1.7,0.2,2.3,0.6s1.1,1,1.5,1.7s0.5,1.6,0.5,2.5v1h-7.4c0,1.3,0.3,2.2,0.9,2.9s1.5,1,2.6,1
		c0.7,0,1.3-0.1,1.8-0.2s1.1-0.3,1.6-0.5v1.4c-0.5,0.2-1.1,0.4-1.6,0.5s-1.2,0.2-1.9,0.2c-1,0-1.9-0.2-2.7-0.6s-1.4-1-1.8-1.9
		s-0.6-1.8-0.6-3c0-1.2,0.2-2.2,0.6-3s0.9-1.5,1.6-1.9S315.7,14.7,316.7,14.7z M316.7,16c-0.9,0-1.6,0.3-2.1,0.8s-0.8,1.4-0.9,2.4
		h5.7c0-0.6-0.1-1.2-0.3-1.7s-0.5-0.9-0.9-1.1S317.3,16,316.7,16z"/>
</g>
<g class="st0">
	<path class="st1" d="M381,11.3h4c1.8,0,3.1,0.3,4,0.8s1.3,1.4,1.3,2.7c0,0.6-0.1,1-0.3,1.5s-0.5,0.8-0.9,1.1s-0.9,0.5-1.5,0.6v0.1
		c0.6,0.1,1.2,0.3,1.7,0.5s0.9,0.6,1.1,1.1s0.4,1.1,0.4,1.8c0,0.9-0.2,1.6-0.6,2.2s-1,1.1-1.7,1.4s-1.6,0.5-2.6,0.5H381V11.3z
		 M382.6,17.5h2.7c1.2,0,2.1-0.2,2.6-0.6s0.7-1,0.7-1.8c0-0.8-0.3-1.4-0.9-1.8s-1.5-0.5-2.7-0.5h-2.5V17.5z M382.6,18.9v5.3h3
		c1.3,0,2.2-0.2,2.7-0.7s0.8-1.2,0.8-2c0-0.5-0.1-1-0.4-1.4s-0.6-0.7-1.2-0.9s-1.2-0.3-2.1-0.3H382.6z"/>
	<path class="st1" d="M398.5,14.7c0.2,0,0.4,0,0.7,0s0.4,0.1,0.6,0.1l-0.2,1.5c-0.2,0-0.4-0.1-0.6-0.1s-0.4,0-0.6,0
		c-0.4,0-0.8,0.1-1.2,0.3s-0.7,0.4-1,0.7s-0.5,0.7-0.7,1.2s-0.2,1-0.2,1.5v5.7h-1.6V14.9h1.3l0.2,2h0.1c0.2-0.4,0.5-0.8,0.8-1.1
		s0.7-0.6,1.1-0.8S398,14.7,398.5,14.7z"/>
	<path class="st1" d="M411,20.2c0,0.9-0.1,1.7-0.3,2.4s-0.6,1.3-1,1.7s-0.9,0.8-1.6,1.1s-1.3,0.4-2.1,0.4c-0.7,0-1.4-0.1-2-0.4
		s-1.1-0.6-1.5-1.1s-0.8-1.1-1-1.7s-0.4-1.5-0.4-2.4c0-1.2,0.2-2.2,0.6-3s1-1.5,1.7-1.9s1.6-0.6,2.6-0.6c1,0,1.8,0.2,2.6,0.7
		s1.3,1.1,1.7,1.9S411,19.1,411,20.2z M402.9,20.2c0,0.9,0.1,1.6,0.3,2.2s0.6,1.1,1.1,1.5s1.1,0.5,1.8,0.5c0.7,0,1.4-0.2,1.8-0.5
		s0.8-0.8,1.1-1.5s0.3-1.4,0.3-2.2c0-0.9-0.1-1.6-0.3-2.2s-0.6-1.1-1.1-1.4s-1.1-0.5-1.8-0.5c-1.1,0-1.9,0.4-2.4,1.1
		S402.9,18.9,402.9,20.2z"/>
	<path class="st1" d="M415.4,10.4v7.9c0,0.3,0,0.6,0,1s0,0.7,0,1h0.1c0.1-0.2,0.3-0.4,0.6-0.8s0.5-0.6,0.7-0.8l3.6-3.8h1.9l-4.3,4.6
		l4.6,6.1h-2l-3.8-5.1l-1.3,1.2v3.9h-1.6V10.4H415.4z"/>
	<path class="st1" d="M428.5,14.7c0.9,0,1.7,0.2,2.3,0.6s1.1,1,1.5,1.7s0.5,1.6,0.5,2.5v1h-7.4c0,1.3,0.3,2.2,0.9,2.9s1.5,1,2.6,1
		c0.7,0,1.3-0.1,1.8-0.2s1.1-0.3,1.6-0.5v1.4c-0.5,0.2-1.1,0.4-1.6,0.5s-1.2,0.2-1.9,0.2c-1,0-1.9-0.2-2.7-0.6s-1.4-1-1.8-1.9
		s-0.6-1.8-0.6-3c0-1.2,0.2-2.2,0.6-3s0.9-1.5,1.6-1.9S427.5,14.7,428.5,14.7z M428.4,16c-0.9,0-1.6,0.3-2.1,0.8s-0.8,1.4-0.9,2.4
		h5.7c0-0.6-0.1-1.2-0.3-1.7s-0.5-0.9-0.9-1.1S429.1,16,428.4,16z"/>
	<path class="st1" d="M440.4,14.7c0.2,0,0.4,0,0.7,0s0.4,0.1,0.6,0.1l-0.2,1.5c-0.2,0-0.4-0.1-0.6-0.1s-0.4,0-0.6,0
		c-0.4,0-0.8,0.1-1.2,0.3s-0.7,0.4-1,0.7s-0.5,0.7-0.7,1.2s-0.2,1-0.2,1.5v5.7h-1.6V14.9h1.3l0.2,2h0.1c0.2-0.4,0.5-0.8,0.8-1.1
		s0.7-0.6,1.1-0.8S439.9,14.7,440.4,14.7z"/>
</g>
<g class="st0">
	<path class="st1" d="M1.4,143.4h6.1v1.2H2.7v3.8h4.4v1.2H2.7v5H1.4V143.4z"/>
	<path class="st1" d="M9.5,144.2c0-0.2,0.1-0.5,0.2-0.6c0.2-0.2,0.4-0.3,0.6-0.3c0.3,0,0.5,0.1,0.7,0.3c0.2,0.2,0.3,0.4,0.3,0.6
		c0,0.2-0.1,0.4-0.3,0.6c-0.2,0.2-0.4,0.2-0.7,0.2c-0.3,0-0.5-0.1-0.6-0.2C9.6,144.6,9.5,144.4,9.5,144.2z M9.8,146.6h1.3v8H9.8
		V146.6z"/>
	<path class="st1" d="M18.9,154.6v-4.6c0-0.8-0.1-1.5-0.4-1.9c-0.2-0.4-0.7-0.6-1.3-0.6c-0.6,0-1,0.2-1.4,0.5
		c-0.4,0.3-0.6,0.7-0.8,1.1v5.5h-1.3v-8h0.9l0.2,1H15c0.3-0.3,0.6-0.6,1-0.8c0.4-0.2,0.9-0.3,1.5-0.3c0.4,0,0.8,0.1,1.2,0.2
		c0.3,0.1,0.6,0.3,0.8,0.5s0.4,0.6,0.5,1c0.1,0.4,0.2,1,0.2,1.6v4.8H18.9z"/>
	<path class="st1" d="M22.4,147.2c0.4-0.2,0.9-0.4,1.4-0.5s1.1-0.2,1.7-0.2c0.6,0,1,0.1,1.3,0.2s0.6,0.3,0.8,0.6
		c0.2,0.2,0.3,0.5,0.4,0.8s0.1,0.6,0.1,0.9c0,0.6,0,1.3,0,1.9c0,0.6,0,1.2,0,1.7c0,0.4,0,0.8,0,1.1c0,0.4,0.1,0.7,0.2,1h-0.9
		l-0.3-1.1h-0.1c-0.1,0.1-0.2,0.3-0.4,0.4c-0.1,0.1-0.3,0.3-0.5,0.4c-0.2,0.1-0.4,0.2-0.7,0.3c-0.3,0.1-0.6,0.1-0.9,0.1
		s-0.7-0.1-1-0.2s-0.5-0.3-0.8-0.5c-0.2-0.2-0.4-0.4-0.5-0.7c-0.1-0.3-0.2-0.6-0.2-0.9c0-0.5,0.1-0.9,0.3-1.2
		c0.2-0.3,0.5-0.6,0.8-0.8c0.3-0.2,0.8-0.3,1.2-0.4s1-0.1,1.6-0.1c0.1,0,0.3,0,0.4,0s0.3,0,0.4,0c0-0.3,0-0.6,0-0.9
		c0-0.6-0.1-1-0.4-1.2c-0.2-0.2-0.7-0.4-1.3-0.4c-0.2,0-0.4,0-0.6,0s-0.4,0.1-0.6,0.1s-0.4,0.1-0.6,0.2s-0.4,0.2-0.5,0.2L22.4,147.2
		z M24.7,153.6c0.3,0,0.6,0,0.8-0.1c0.2-0.1,0.4-0.2,0.6-0.3c0.2-0.1,0.3-0.3,0.4-0.4s0.2-0.3,0.2-0.4V151c-0.1,0-0.3,0-0.5,0
		c-0.2,0-0.3,0-0.5,0c-0.3,0-0.7,0-1,0.1c-0.3,0-0.6,0.1-0.8,0.2c-0.2,0.1-0.4,0.2-0.6,0.4c-0.1,0.2-0.2,0.4-0.2,0.7
		c0,0.4,0.1,0.7,0.4,0.9C23.9,153.5,24.3,153.6,24.7,153.6z"/>
	<path class="st1" d="M35.6,154.6v-4.6c0-0.8-0.1-1.5-0.4-1.9c-0.2-0.4-0.7-0.6-1.3-0.6c-0.6,0-1,0.2-1.4,0.5
		c-0.4,0.3-0.6,0.7-0.8,1.1v5.5h-1.3v-8h0.9l0.2,1h0.1c0.3-0.3,0.6-0.6,1-0.8c0.4-0.2,0.9-0.3,1.5-0.3c0.4,0,0.8,0.1,1.2,0.2
		c0.3,0.1,0.6,0.3,0.8,0.5s0.4,0.6,0.5,1c0.1,0.4,0.2,1,0.2,1.6v4.8H35.6z"/>
	<path class="st1" d="M44.7,154.1c-0.3,0.2-0.7,0.4-1.1,0.5c-0.4,0.1-0.9,0.2-1.4,0.2c-0.6,0-1.1-0.1-1.6-0.3
		c-0.4-0.2-0.8-0.5-1-0.8s-0.5-0.8-0.6-1.3c-0.1-0.5-0.2-1.1-0.2-1.7c0-1.4,0.3-2.4,0.9-3.1c0.6-0.7,1.5-1.1,2.6-1.1
		c0.5,0,0.9,0,1.3,0.1s0.7,0.2,1,0.3l-0.4,1.1c-0.2-0.1-0.5-0.2-0.8-0.3c-0.3-0.1-0.6-0.1-1-0.1c-1.5,0-2.3,1-2.3,3.1
		c0,0.4,0,0.8,0.1,1.2s0.2,0.7,0.4,1c0.2,0.3,0.4,0.5,0.7,0.7c0.3,0.2,0.7,0.3,1.1,0.3c0.4,0,0.7-0.1,1-0.2c0.3-0.1,0.6-0.3,0.7-0.4
		L44.7,154.1z"/>
	<path class="st1" d="M46.4,144.2c0-0.2,0.1-0.5,0.2-0.6c0.2-0.2,0.4-0.3,0.6-0.3c0.3,0,0.5,0.1,0.7,0.3c0.2,0.2,0.3,0.4,0.3,0.6
		c0,0.2-0.1,0.4-0.3,0.6c-0.2,0.2-0.4,0.2-0.7,0.2c-0.3,0-0.5-0.1-0.6-0.2C46.5,144.6,46.4,144.4,46.4,144.2z M46.7,146.6H48v8h-1.3
		V146.6z"/>
	<path class="st1" d="M55.9,154.6v-4.6c0-0.8-0.1-1.5-0.4-1.9c-0.2-0.4-0.7-0.6-1.3-0.6c-0.6,0-1,0.2-1.4,0.5
		c-0.4,0.3-0.6,0.7-0.8,1.1v5.5h-1.3v-8h0.9l0.2,1h0.1c0.3-0.3,0.6-0.6,1-0.8c0.4-0.2,0.9-0.3,1.5-0.3c0.4,0,0.8,0.1,1.2,0.2
		c0.3,0.1,0.6,0.3,0.8,0.5s0.4,0.6,0.5,1c0.1,0.4,0.2,1,0.2,1.6v4.8H55.9z"/>
	<path class="st1" d="M65.6,155c0,1-0.3,1.8-0.8,2.3c-0.5,0.5-1.4,0.7-2.4,0.7c-0.6,0-1.2,0-1.5-0.1c-0.4-0.1-0.7-0.2-1-0.3l0.3-1.1
		c0.2,0.1,0.5,0.2,0.8,0.3c0.3,0.1,0.7,0.1,1.2,0.1c0.4,0,0.8,0,1.1-0.1s0.5-0.2,0.7-0.4c0.2-0.2,0.3-0.4,0.4-0.7
		c0.1-0.3,0.1-0.6,0.1-1v-0.8h-0.1c-0.2,0.3-0.5,0.5-0.8,0.7s-0.8,0.2-1.3,0.2c-1.1,0-1.9-0.3-2.4-1c-0.5-0.7-0.8-1.7-0.8-3.1
		c0-1.4,0.3-2.4,1-3.1c0.7-0.7,1.6-1.1,2.9-1.1c0.6,0,1.1,0,1.6,0.1c0.4,0.1,0.8,0.2,1.2,0.3V155z M62.4,153.7c0.5,0,1-0.1,1.3-0.4
		c0.3-0.3,0.5-0.7,0.7-1.3v-4.1c-0.4-0.2-1-0.3-1.6-0.3c-0.7,0-1.3,0.2-1.7,0.7c-0.4,0.5-0.6,1.3-0.6,2.3c0,0.4,0,0.9,0.1,1.2
		c0.1,0.4,0.2,0.7,0.4,1c0.2,0.3,0.4,0.5,0.6,0.6C61.7,153.6,62,153.7,62.4,153.7z"/>
	<path class="st1" d="M71.5,146.6h1.2v-0.4c0-0.5,0-0.9,0.1-1.3c0.1-0.4,0.2-0.7,0.4-0.9c0.2-0.2,0.4-0.4,0.7-0.5s0.6-0.2,1.1-0.2
		c0.3,0,0.6,0,0.9,0.1c0.3,0,0.5,0.1,0.8,0.2l-0.3,1.1c-0.2-0.1-0.5-0.2-0.7-0.2s-0.4,0-0.6,0c-0.3,0-0.5,0-0.6,0.1
		c-0.2,0.1-0.3,0.2-0.3,0.4c-0.1,0.2-0.1,0.4-0.1,0.6c0,0.2,0,0.5,0,0.8v0.2h2.1v1.1H74v6.9h-1.3v-6.9h-1.2V146.6z"/>
	<path class="st1" d="M76.8,150.6c0-1.4,0.3-2.4,0.9-3.1c0.6-0.7,1.5-1.1,2.6-1.1c0.6,0,1.1,0.1,1.6,0.3c0.4,0.2,0.8,0.5,1.1,0.8
		s0.5,0.8,0.6,1.3s0.2,1.1,0.2,1.7c0,1.4-0.3,2.4-0.9,3.1c-0.6,0.7-1.5,1.1-2.6,1.1c-0.6,0-1.1-0.1-1.6-0.3
		c-0.4-0.2-0.8-0.5-1.1-0.8c-0.3-0.4-0.5-0.8-0.6-1.3C76.9,151.8,76.8,151.2,76.8,150.6z M78.2,150.6c0,0.4,0,0.8,0.1,1.2
		s0.2,0.7,0.4,1c0.2,0.3,0.4,0.5,0.7,0.7c0.3,0.2,0.6,0.3,1,0.3c1.5,0,2.2-1,2.2-3.1c0-0.4,0-0.8-0.1-1.2c-0.1-0.4-0.2-0.7-0.4-1
		c-0.2-0.3-0.4-0.5-0.7-0.7c-0.3-0.2-0.6-0.2-1-0.2C78.9,147.5,78.2,148.6,78.2,150.6z"/>
	<path class="st1" d="M91.3,154.1c-0.3,0.2-0.7,0.4-1.1,0.5c-0.4,0.1-0.9,0.2-1.4,0.2c-0.6,0-1.1-0.1-1.6-0.3
		c-0.4-0.2-0.8-0.5-1-0.8s-0.5-0.8-0.6-1.3c-0.1-0.5-0.2-1.1-0.2-1.7c0-1.4,0.3-2.4,0.9-3.1c0.6-0.7,1.5-1.1,2.6-1.1
		c0.5,0,0.9,0,1.3,0.1s0.7,0.2,1,0.3l-0.4,1.1c-0.2-0.1-0.5-0.2-0.8-0.3c-0.3-0.1-0.6-0.1-1-0.1c-1.5,0-2.3,1-2.3,3.1
		c0,0.4,0,0.8,0.1,1.2s0.2,0.7,0.4,1c0.2,0.3,0.4,0.5,0.7,0.7c0.3,0.2,0.7,0.3,1.1,0.3c0.4,0,0.7-0.1,1-0.2c0.3-0.1,0.6-0.3,0.7-0.4
		L91.3,154.1z"/>
	<path class="st1" d="M94.2,146.6v4.6c0,0.4,0,0.8,0.1,1.1s0.1,0.6,0.2,0.8c0.1,0.2,0.3,0.4,0.5,0.5s0.5,0.2,0.8,0.2
		c0.3,0,0.5,0,0.8-0.1c0.2-0.1,0.4-0.2,0.6-0.4c0.2-0.2,0.3-0.3,0.5-0.6c0.1-0.2,0.2-0.4,0.3-0.7v-5.3h1.3v5.7c0,0.4,0,0.8,0,1.2
		c0,0.4,0.1,0.8,0.1,1.1h-0.9l-0.3-1.3h-0.1c-0.2,0.4-0.6,0.8-1,1s-0.9,0.4-1.6,0.4c-0.4,0-0.8-0.1-1.1-0.2
		c-0.3-0.1-0.6-0.3-0.8-0.5c-0.2-0.3-0.4-0.6-0.5-1c-0.1-0.4-0.2-1-0.2-1.6v-4.8H94.2z"/>
	<path class="st1" d="M105.2,152.4c0-0.3-0.1-0.6-0.3-0.8s-0.4-0.3-0.7-0.5c-0.3-0.1-0.6-0.2-0.9-0.4c-0.3-0.1-0.6-0.3-0.9-0.4
		s-0.5-0.4-0.7-0.7s-0.3-0.7-0.3-1.1c0-0.8,0.2-1.3,0.7-1.7s1-0.5,1.8-0.5c0.6,0,1.1,0.1,1.4,0.2c0.4,0.1,0.7,0.2,1,0.4L106,148
		c-0.2-0.1-0.5-0.2-0.9-0.3c-0.3-0.1-0.7-0.1-1.1-0.1c-0.5,0-0.8,0.1-1,0.2s-0.3,0.4-0.3,0.8c0,0.3,0.1,0.5,0.3,0.6
		c0.2,0.2,0.4,0.3,0.7,0.4c0.3,0.1,0.6,0.2,0.9,0.4s0.6,0.3,0.9,0.5c0.3,0.2,0.5,0.4,0.7,0.7c0.2,0.3,0.3,0.7,0.3,1.2
		c0,0.3-0.1,0.7-0.2,1c-0.1,0.3-0.3,0.6-0.5,0.8c-0.2,0.2-0.5,0.4-0.9,0.5c-0.3,0.1-0.8,0.2-1.2,0.2c-0.6,0-1.1-0.1-1.6-0.2
		s-0.8-0.3-1.1-0.4l0.4-1.1c0.2,0.1,0.6,0.3,1,0.4c0.4,0.1,0.8,0.2,1.2,0.2c0.5,0,0.8-0.1,1.1-0.3
		C105.1,153.2,105.2,152.9,105.2,152.4z"/>
</g>
<g class="st0">
	<path class="st1" d="M6.7,283.5H2.6l-1.1,3.1H0.1l4.2-11.4H5l4.3,11.4H7.8L6.7,283.5z M3,282.4h3.3L5,279l-0.4-1.7h0L4.2,279
		L3,282.4z"/>
	<path class="st1" d="M12,284.6c0,0.4,0.1,0.6,0.2,0.8s0.3,0.2,0.5,0.2c0.1,0,0.3,0,0.4,0c0.2,0,0.3-0.1,0.5-0.1l0.1,1
		c-0.2,0.1-0.4,0.2-0.7,0.2c-0.3,0.1-0.6,0.1-0.8,0.1c-0.5,0-0.9-0.1-1.2-0.4c-0.3-0.3-0.5-0.7-0.5-1.4v-9.6H12V284.6z"/>
	<path class="st1" d="M15.3,276.2c0-0.2,0.1-0.5,0.2-0.6c0.2-0.2,0.4-0.3,0.6-0.3c0.3,0,0.5,0.1,0.7,0.3c0.2,0.2,0.3,0.4,0.3,0.6
		c0,0.2-0.1,0.4-0.3,0.6c-0.2,0.2-0.4,0.2-0.7,0.2c-0.3,0-0.5-0.1-0.6-0.2C15.3,276.6,15.3,276.4,15.3,276.2z M15.5,278.6h1.3v8
		h-1.3V278.6z"/>
	<path class="st1" d="M25.7,287c0,1-0.3,1.8-0.8,2.3c-0.5,0.5-1.4,0.7-2.4,0.7c-0.6,0-1.2,0-1.5-0.1c-0.4-0.1-0.7-0.2-1-0.3l0.3-1.1
		c0.2,0.1,0.5,0.2,0.8,0.3c0.3,0.1,0.7,0.1,1.2,0.1c0.4,0,0.8,0,1.1-0.1s0.5-0.2,0.7-0.4c0.2-0.2,0.3-0.4,0.4-0.7
		c0.1-0.3,0.1-0.6,0.1-1v-0.8h-0.1c-0.2,0.3-0.5,0.5-0.8,0.7s-0.8,0.2-1.3,0.2c-1.1,0-1.9-0.3-2.4-1c-0.5-0.7-0.8-1.7-0.8-3.1
		c0-1.4,0.3-2.4,1-3.1c0.7-0.7,1.6-1.1,2.9-1.1c0.6,0,1.1,0,1.6,0.1c0.4,0.1,0.8,0.2,1.2,0.3V287z M22.5,285.7c0.5,0,1-0.1,1.3-0.4
		c0.3-0.3,0.5-0.7,0.7-1.3v-4.1c-0.4-0.2-1-0.3-1.6-0.3c-0.7,0-1.3,0.2-1.7,0.7c-0.4,0.5-0.6,1.3-0.6,2.3c0,0.4,0,0.9,0.1,1.2
		c0.1,0.4,0.2,0.7,0.4,1c0.2,0.3,0.4,0.5,0.6,0.6C21.8,285.6,22.1,285.7,22.5,285.7z"/>
	<path class="st1" d="M33.3,286.6v-4.6c0-0.8-0.1-1.5-0.4-1.9c-0.2-0.4-0.7-0.6-1.3-0.6c-0.6,0-1,0.2-1.4,0.5
		c-0.4,0.3-0.6,0.7-0.8,1.1v5.5h-1.3v-8H29l0.2,1h0.1c0.3-0.3,0.6-0.6,1-0.8c0.4-0.2,0.9-0.3,1.5-0.3c0.4,0,0.8,0.1,1.2,0.2
		c0.3,0.1,0.6,0.3,0.8,0.5s0.4,0.6,0.5,1c0.1,0.4,0.2,1,0.2,1.6v4.8H33.3z"/>
	<path class="st1" d="M42.7,286c-0.3,0.3-0.7,0.5-1.2,0.6s-1,0.2-1.5,0.2c-0.6,0-1.1-0.1-1.6-0.3c-0.4-0.2-0.8-0.5-1.1-0.8
		c-0.3-0.4-0.5-0.8-0.6-1.3c-0.1-0.5-0.2-1.1-0.2-1.7c0-1.4,0.3-2.4,0.9-3.1c0.6-0.7,1.5-1.1,2.6-1.1c0.4,0,0.7,0,1.1,0.1
		c0.4,0.1,0.7,0.2,1,0.5c0.3,0.2,0.5,0.5,0.7,1c0.2,0.4,0.3,1,0.3,1.6c0,0.4,0,0.7-0.1,1.2h-5.1c0,0.5,0,0.9,0.1,1.2
		c0.1,0.4,0.2,0.7,0.4,0.9c0.2,0.3,0.5,0.4,0.8,0.6c0.3,0.1,0.7,0.2,1.2,0.2c0.4,0,0.7-0.1,1.1-0.2s0.6-0.3,0.8-0.4L42.7,286z
		 M40,279.5c-0.6,0-1.1,0.2-1.5,0.5c-0.4,0.3-0.6,0.9-0.7,1.7h4c0-0.8-0.2-1.4-0.5-1.7S40.5,279.5,40,279.5z"/>
	<path class="st1" d="M51.2,283.9c0,0.5,0,1,0,1.5c0,0.4,0.1,0.9,0.1,1.3h-0.9l-0.3-1.1h-0.1c-0.2,0.4-0.5,0.7-0.9,0.9
		s-0.9,0.4-1.4,0.4c-1.1,0-1.9-0.3-2.4-1c-0.5-0.7-0.8-1.7-0.8-3.2c0-1.4,0.3-2.4,1-3.1c0.6-0.7,1.5-1.1,2.7-1.1
		c0.4,0,0.7,0,0.9,0.1c0.2,0,0.5,0.1,0.7,0.2v-3.3h1.3V283.9z M47.9,285.7c0.5,0,1-0.1,1.3-0.4c0.3-0.3,0.5-0.7,0.7-1.3v-4
		c-0.2-0.1-0.4-0.3-0.7-0.3c-0.2-0.1-0.6-0.1-1-0.1c-0.7,0-1.3,0.2-1.7,0.7s-0.6,1.3-0.6,2.3c0,0.4,0,0.8,0.1,1.2s0.2,0.7,0.3,1
		s0.4,0.5,0.6,0.6C47.2,285.6,47.6,285.7,47.9,285.7z"/>
	<path class="st1" d="M57.5,282.6c0-1.4,0.3-2.4,0.9-3.1c0.6-0.7,1.5-1.1,2.6-1.1c0.6,0,1.1,0.1,1.6,0.3c0.4,0.2,0.8,0.5,1.1,0.8
		s0.5,0.8,0.6,1.3s0.2,1.1,0.2,1.7c0,1.4-0.3,2.4-0.9,3.1c-0.6,0.7-1.5,1.1-2.6,1.1c-0.6,0-1.1-0.1-1.6-0.3
		c-0.4-0.2-0.8-0.5-1.1-0.8c-0.3-0.4-0.5-0.8-0.6-1.3C57.5,283.8,57.5,283.2,57.5,282.6z M58.8,282.6c0,0.4,0,0.8,0.1,1.2
		s0.2,0.7,0.4,1c0.2,0.3,0.4,0.5,0.7,0.7c0.3,0.2,0.6,0.3,1,0.3c1.5,0,2.2-1,2.2-3.1c0-0.4,0-0.8-0.1-1.2c-0.1-0.4-0.2-0.7-0.4-1
		c-0.2-0.3-0.4-0.5-0.7-0.7c-0.3-0.2-0.6-0.2-1-0.2C59.5,279.5,58.8,280.6,58.8,282.6z"/>
	<path class="st1" d="M66.5,275.4h1.3v4h0.1c0.2-0.3,0.6-0.5,0.9-0.7c0.4-0.2,0.8-0.3,1.2-0.3c1,0,1.8,0.3,2.3,1
		c0.5,0.7,0.8,1.7,0.8,3.1c0,1.4-0.3,2.5-1,3.2c-0.7,0.7-1.6,1.1-2.9,1.1c-0.6,0-1.1-0.1-1.6-0.2c-0.5-0.1-0.9-0.3-1.1-0.4V275.4z
		 M69.8,279.5c-0.5,0-1,0.1-1.3,0.4s-0.6,0.7-0.7,1.3v4c0.2,0.1,0.4,0.2,0.7,0.3c0.3,0.1,0.6,0.1,0.9,0.1c0.7,0,1.3-0.3,1.7-0.8
		c0.4-0.5,0.6-1.3,0.6-2.4c0-0.4,0-0.8-0.1-1.2c-0.1-0.4-0.2-0.7-0.4-0.9s-0.4-0.5-0.6-0.6C70.4,279.6,70.1,279.5,69.8,279.5z"/>
	<path class="st1" d="M75.4,278.6h1.3v8.4c0,1-0.2,1.7-0.5,2.2c-0.3,0.5-0.9,0.7-1.6,0.7c-0.1,0-0.2,0-0.2,0c-0.1,0-0.2,0-0.2,0
		v-1.1c0.3,0,0.5,0,0.7-0.1c0.2-0.1,0.3-0.2,0.4-0.4c0.1-0.2,0.2-0.4,0.2-0.7c0-0.3,0-0.6,0-1V278.6z M75.1,276.2
		c0-0.2,0.1-0.5,0.2-0.6c0.2-0.2,0.4-0.3,0.6-0.3c0.3,0,0.5,0.1,0.7,0.3c0.2,0.2,0.3,0.4,0.3,0.6c0,0.2-0.1,0.4-0.3,0.6
		c-0.2,0.2-0.4,0.2-0.7,0.2c-0.3,0-0.5-0.1-0.6-0.2S75.1,276.4,75.1,276.2z"/>
	<path class="st1" d="M85.2,286c-0.3,0.3-0.7,0.5-1.2,0.6s-1,0.2-1.5,0.2c-0.6,0-1.1-0.1-1.6-0.3c-0.4-0.2-0.8-0.5-1.1-0.8
		c-0.3-0.4-0.5-0.8-0.6-1.3c-0.1-0.5-0.2-1.1-0.2-1.7c0-1.4,0.3-2.4,0.9-3.1c0.6-0.7,1.5-1.1,2.6-1.1c0.4,0,0.7,0,1.1,0.1
		c0.4,0.1,0.7,0.2,1,0.5c0.3,0.2,0.5,0.5,0.7,1c0.2,0.4,0.3,1,0.3,1.6c0,0.4,0,0.7-0.1,1.2h-5.1c0,0.5,0,0.9,0.1,1.2
		c0.1,0.4,0.2,0.7,0.4,0.9c0.2,0.3,0.5,0.4,0.8,0.6c0.3,0.1,0.7,0.2,1.2,0.2c0.4,0,0.7-0.1,1.1-0.2s0.6-0.3,0.8-0.4L85.2,286z
		 M82.5,279.5c-0.6,0-1.1,0.2-1.5,0.5c-0.4,0.3-0.6,0.9-0.7,1.7h4c0-0.8-0.2-1.4-0.5-1.7S83,279.5,82.5,279.5z"/>
	<path class="st1" d="M92.8,286.1c-0.3,0.2-0.7,0.4-1.1,0.5c-0.4,0.1-0.9,0.2-1.4,0.2c-0.6,0-1.1-0.1-1.6-0.3
		c-0.4-0.2-0.8-0.5-1-0.8s-0.5-0.8-0.6-1.3c-0.1-0.5-0.2-1.1-0.2-1.7c0-1.4,0.3-2.4,0.9-3.1c0.6-0.7,1.5-1.1,2.6-1.1
		c0.5,0,0.9,0,1.3,0.1s0.7,0.2,1,0.3l-0.4,1.1c-0.2-0.1-0.5-0.2-0.8-0.3c-0.3-0.1-0.6-0.1-1-0.1c-1.5,0-2.3,1-2.3,3.1
		c0,0.4,0,0.8,0.1,1.2s0.2,0.7,0.4,1c0.2,0.3,0.4,0.5,0.7,0.7c0.3,0.2,0.7,0.3,1.1,0.3c0.4,0,0.7-0.1,1-0.2c0.3-0.1,0.6-0.3,0.7-0.4
		L92.8,286.1z"/>
	<path class="st1" d="M93.5,278.6h1.2V277l1.3-0.4v2h2.2v1.1H96v4.4c0,0.6,0.1,0.9,0.2,1.2c0.1,0.2,0.4,0.3,0.7,0.3
		c0.3,0,0.5,0,0.7-0.1c0.2-0.1,0.4-0.1,0.6-0.2l0.3,1c-0.3,0.1-0.6,0.3-0.9,0.3c-0.3,0.1-0.7,0.1-1.1,0.1c-0.7,0-1.1-0.2-1.4-0.6
		c-0.3-0.4-0.4-1-0.4-1.8v-4.7h-1.2V278.6z"/>
	<path class="st1" d="M100,276.2c0-0.2,0.1-0.5,0.2-0.6c0.2-0.2,0.4-0.3,0.6-0.3c0.3,0,0.5,0.1,0.7,0.3c0.2,0.2,0.3,0.4,0.3,0.6
		c0,0.2-0.1,0.4-0.3,0.6c-0.2,0.2-0.4,0.2-0.7,0.2c-0.3,0-0.5-0.1-0.6-0.2C100.1,276.6,100,276.4,100,276.2z M100.3,278.6h1.3v8
		h-1.3V278.6z"/>
	<path class="st1" d="M106.6,283.3l0.4,1.5h0l0.4-1.6l1.8-4.7h1.4l-3.4,8.2h-0.5l-3.5-8.2h1.5L106.6,283.3z"/>
	<path class="st1" d="M117.6,286c-0.3,0.3-0.7,0.5-1.2,0.6s-1,0.2-1.5,0.2c-0.6,0-1.1-0.1-1.6-0.3c-0.4-0.2-0.8-0.5-1.1-0.8
		c-0.3-0.4-0.5-0.8-0.6-1.3c-0.1-0.5-0.2-1.1-0.2-1.7c0-1.4,0.3-2.4,0.9-3.1c0.6-0.7,1.5-1.1,2.6-1.1c0.4,0,0.7,0,1.1,0.1
		c0.4,0.1,0.7,0.2,1,0.5c0.3,0.2,0.5,0.5,0.7,1c0.2,0.4,0.3,1,0.3,1.6c0,0.4,0,0.7-0.1,1.2h-5.1c0,0.5,0,0.9,0.1,1.2
		c0.1,0.4,0.2,0.7,0.4,0.9c0.2,0.3,0.5,0.4,0.8,0.6c0.3,0.1,0.7,0.2,1.2,0.2c0.4,0,0.7-0.1,1.1-0.2s0.6-0.3,0.8-0.4L117.6,286z
		 M114.9,279.5c-0.6,0-1.1,0.2-1.5,0.5c-0.4,0.3-0.6,0.9-0.7,1.7h4c0-0.8-0.2-1.4-0.5-1.7S115.5,279.5,114.9,279.5z"/>
	<path class="st1" d="M123.5,284.4c0-0.3-0.1-0.6-0.3-0.8s-0.4-0.3-0.7-0.5c-0.3-0.1-0.6-0.2-0.9-0.4c-0.3-0.1-0.6-0.3-0.9-0.4
		s-0.5-0.4-0.7-0.7s-0.3-0.7-0.3-1.1c0-0.8,0.2-1.3,0.7-1.7s1-0.5,1.8-0.5c0.6,0,1.1,0.1,1.4,0.2c0.4,0.1,0.7,0.2,1,0.4l-0.3,1.1
		c-0.2-0.1-0.5-0.2-0.9-0.3c-0.3-0.1-0.7-0.1-1.1-0.1c-0.5,0-0.8,0.1-1,0.2s-0.3,0.4-0.3,0.8c0,0.3,0.1,0.5,0.3,0.6
		c0.2,0.2,0.4,0.3,0.7,0.4c0.3,0.1,0.6,0.2,0.9,0.4s0.6,0.3,0.9,0.5c0.3,0.2,0.5,0.4,0.7,0.7c0.2,0.3,0.3,0.7,0.3,1.2
		c0,0.3-0.1,0.7-0.2,1c-0.1,0.3-0.3,0.6-0.5,0.8c-0.2,0.2-0.5,0.4-0.9,0.5c-0.3,0.1-0.8,0.2-1.2,0.2c-0.6,0-1.1-0.1-1.6-0.2
		s-0.8-0.3-1.1-0.4l0.4-1.1c0.2,0.1,0.6,0.3,1,0.4c0.4,0.1,0.8,0.2,1.2,0.2c0.5,0,0.8-0.1,1.1-0.3
		C123.3,285.2,123.5,284.9,123.5,284.4z"/>
</g>
<g class="st0">
	<path class="st1" d="M1.4,99.4h6.1v1.2H2.7v3.7h4.4v1.2H2.7v4h4.8v1.2H1.4V99.4z"/>
	<path class="st1" d="M11.9,106.5l-2.7-3.9h1.6l1.5,2.2l0.4,0.9l0.5-0.9l1.6-2.2h1.4l-2.7,3.8l2.9,4.2h-1.5l-1.7-2.4l-0.5-1l-0.5,1
		l-1.7,2.4H9L11.9,106.5z"/>
	<path class="st1" d="M18,102.6h0.9l0.2,1h0.1c0.2-0.4,0.6-0.7,1-0.9c0.4-0.2,0.8-0.3,1.3-0.3c1.1,0,1.9,0.3,2.4,0.9
		c0.5,0.6,0.8,1.7,0.8,3.1c0,0.7-0.1,1.3-0.3,1.8c-0.2,0.5-0.4,1-0.7,1.4c-0.3,0.4-0.7,0.7-1.2,0.9c-0.5,0.2-1,0.3-1.5,0.3
		c-0.4,0-0.7,0-0.9-0.1s-0.5-0.1-0.7-0.2v3.3H18V102.6z M21.3,103.5c-0.5,0-1,0.1-1.3,0.4c-0.3,0.3-0.5,0.7-0.7,1.3v4
		c0.2,0.1,0.4,0.3,0.7,0.3c0.2,0.1,0.6,0.1,1,0.1c0.7,0,1.3-0.3,1.8-0.8c0.4-0.5,0.6-1.4,0.6-2.4c0-0.4,0-0.8-0.1-1.2
		c-0.1-0.4-0.2-0.7-0.4-0.9c-0.2-0.2-0.4-0.4-0.6-0.6C22,103.6,21.7,103.5,21.3,103.5z"/>
	<path class="st1" d="M32.5,110c-0.3,0.3-0.7,0.5-1.2,0.6s-1,0.2-1.5,0.2c-0.6,0-1.1-0.1-1.6-0.3c-0.4-0.2-0.8-0.5-1.1-0.8
		c-0.3-0.4-0.5-0.8-0.6-1.3c-0.1-0.5-0.2-1.1-0.2-1.7c0-1.4,0.3-2.4,0.9-3.1c0.6-0.7,1.5-1.1,2.6-1.1c0.4,0,0.7,0,1.1,0.1
		c0.4,0.1,0.7,0.2,1,0.5c0.3,0.2,0.5,0.5,0.7,1c0.2,0.4,0.3,1,0.3,1.6c0,0.4,0,0.7-0.1,1.2h-5.1c0,0.5,0,0.9,0.1,1.2
		c0.1,0.4,0.2,0.7,0.4,0.9c0.2,0.3,0.5,0.4,0.8,0.6c0.3,0.1,0.7,0.2,1.2,0.2c0.4,0,0.7-0.1,1.1-0.2s0.6-0.3,0.8-0.4L32.5,110z
		 M29.8,103.5c-0.6,0-1.1,0.2-1.5,0.5c-0.4,0.3-0.6,0.9-0.7,1.7h4c0-0.8-0.2-1.4-0.5-1.7S30.4,103.5,29.8,103.5z"/>
	<path class="st1" d="M38.6,103.8c-0.3-0.1-0.6-0.2-0.9-0.2c-0.5,0-0.8,0.1-1.1,0.4s-0.4,0.6-0.5,1v5.6h-1.3v-8h0.9l0.2,1H36
		c0.2-0.4,0.4-0.6,0.7-0.8c0.3-0.2,0.6-0.3,1.1-0.3c0.3,0,0.7,0.1,1,0.2L38.6,103.8z"/>
	<path class="st1" d="M40.3,100.2c0-0.2,0.1-0.5,0.2-0.6c0.2-0.2,0.4-0.3,0.6-0.3c0.3,0,0.5,0.1,0.7,0.3c0.2,0.2,0.3,0.4,0.3,0.6
		c0,0.2-0.1,0.4-0.3,0.6c-0.2,0.2-0.4,0.2-0.7,0.2c-0.3,0-0.5-0.1-0.6-0.2C40.4,100.6,40.3,100.4,40.3,100.2z M40.5,102.6h1.3v8
		h-1.3V102.6z"/>
	<path class="st1" d="M50.4,110c-0.3,0.3-0.7,0.5-1.2,0.6s-1,0.2-1.5,0.2c-0.6,0-1.1-0.1-1.6-0.3c-0.4-0.2-0.8-0.5-1.1-0.8
		c-0.3-0.4-0.5-0.8-0.6-1.3c-0.1-0.5-0.2-1.1-0.2-1.7c0-1.4,0.3-2.4,0.9-3.1c0.6-0.7,1.5-1.1,2.6-1.1c0.4,0,0.7,0,1.1,0.1
		c0.4,0.1,0.7,0.2,1,0.5c0.3,0.2,0.5,0.5,0.7,1c0.2,0.4,0.3,1,0.3,1.6c0,0.4,0,0.7-0.1,1.2h-5.1c0,0.5,0,0.9,0.1,1.2
		c0.1,0.4,0.2,0.7,0.4,0.9c0.2,0.3,0.5,0.4,0.8,0.6c0.3,0.1,0.7,0.2,1.2,0.2c0.4,0,0.7-0.1,1.1-0.2s0.6-0.3,0.8-0.4L50.4,110z
		 M47.6,103.5c-0.6,0-1.1,0.2-1.5,0.5c-0.4,0.3-0.6,0.9-0.7,1.7h4c0-0.8-0.2-1.4-0.5-1.7S48.2,103.5,47.6,103.5z"/>
	<path class="st1" d="M57.8,110.6v-4.6c0-0.8-0.1-1.5-0.4-1.9c-0.2-0.4-0.7-0.6-1.3-0.6c-0.6,0-1,0.2-1.4,0.5
		c-0.4,0.3-0.6,0.7-0.8,1.1v5.5h-1.3v-8h0.9l0.2,1h0.1c0.3-0.3,0.6-0.6,1-0.8c0.4-0.2,0.9-0.3,1.5-0.3c0.4,0,0.8,0.1,1.2,0.2
		c0.3,0.1,0.6,0.3,0.8,0.5s0.4,0.6,0.5,1c0.1,0.4,0.2,1,0.2,1.6v4.8H57.8z"/>
	<path class="st1" d="M66.9,110.1c-0.3,0.2-0.7,0.4-1.1,0.5c-0.4,0.1-0.9,0.2-1.4,0.2c-0.6,0-1.1-0.1-1.6-0.3
		c-0.4-0.2-0.8-0.5-1-0.8s-0.5-0.8-0.6-1.3c-0.1-0.5-0.2-1.1-0.2-1.7c0-1.4,0.3-2.4,0.9-3.1c0.6-0.7,1.5-1.1,2.6-1.1
		c0.5,0,0.9,0,1.3,0.1s0.7,0.2,1,0.3l-0.4,1.1c-0.2-0.1-0.5-0.2-0.8-0.3c-0.3-0.1-0.6-0.1-1-0.1c-1.5,0-2.3,1-2.3,3.1
		c0,0.4,0,0.8,0.1,1.2s0.2,0.7,0.4,1c0.2,0.3,0.4,0.5,0.7,0.7c0.3,0.2,0.7,0.3,1.1,0.3c0.4,0,0.7-0.1,1-0.2c0.3-0.1,0.6-0.3,0.7-0.4
		L66.9,110.1z"/>
	<path class="st1" d="M74.1,110c-0.3,0.3-0.7,0.5-1.2,0.6s-1,0.2-1.5,0.2c-0.6,0-1.1-0.1-1.6-0.3c-0.4-0.2-0.8-0.5-1.1-0.8
		c-0.3-0.4-0.5-0.8-0.6-1.3c-0.1-0.5-0.2-1.1-0.2-1.7c0-1.4,0.3-2.4,0.9-3.1c0.6-0.7,1.5-1.1,2.6-1.1c0.4,0,0.7,0,1.1,0.1
		c0.4,0.1,0.7,0.2,1,0.5c0.3,0.2,0.5,0.5,0.7,1c0.2,0.4,0.3,1,0.3,1.6c0,0.4,0,0.7-0.1,1.2h-5.1c0,0.5,0,0.9,0.1,1.2
		c0.1,0.4,0.2,0.7,0.4,0.9c0.2,0.3,0.5,0.4,0.8,0.6c0.3,0.1,0.7,0.2,1.2,0.2c0.4,0,0.7-0.1,1.1-0.2s0.6-0.3,0.8-0.4L74.1,110z
		 M71.4,103.5c-0.6,0-1.1,0.2-1.5,0.5c-0.4,0.3-0.6,0.9-0.7,1.7h4c0-0.8-0.2-1.4-0.5-1.7S71.9,103.5,71.4,103.5z"/>
	<path class="st1" d="M82.6,107.9c0,0.5,0,1,0,1.5c0,0.4,0.1,0.9,0.1,1.3h-0.9l-0.3-1.1h-0.1c-0.2,0.4-0.5,0.7-0.9,0.9
		s-0.9,0.4-1.4,0.4c-1.1,0-1.9-0.3-2.4-1c-0.5-0.7-0.8-1.7-0.8-3.2c0-1.4,0.3-2.4,1-3.1c0.6-0.7,1.5-1.1,2.7-1.1
		c0.4,0,0.7,0,0.9,0.1c0.2,0,0.5,0.1,0.7,0.2v-3.3h1.3V107.9z M79.3,109.7c0.5,0,1-0.1,1.3-0.4c0.3-0.3,0.5-0.7,0.7-1.3v-4
		c-0.2-0.1-0.4-0.3-0.7-0.3c-0.2-0.1-0.6-0.1-1-0.1c-0.7,0-1.3,0.2-1.7,0.7s-0.6,1.3-0.6,2.3c0,0.4,0,0.8,0.1,1.2s0.2,0.7,0.3,1
		s0.4,0.5,0.6,0.6C78.6,109.6,79,109.7,79.3,109.7z"/>
	<path class="st1" d="M89.2,103.2c0.4-0.2,0.9-0.4,1.4-0.5s1.1-0.2,1.7-0.2c0.6,0,1,0.1,1.3,0.2s0.6,0.3,0.8,0.6
		c0.2,0.2,0.3,0.5,0.4,0.8s0.1,0.6,0.1,0.9c0,0.6,0,1.3,0,1.9c0,0.6,0,1.2,0,1.7c0,0.4,0,0.8,0,1.1c0,0.4,0.1,0.7,0.2,1H94l-0.3-1.1
		h-0.1c-0.1,0.1-0.2,0.3-0.4,0.4c-0.1,0.1-0.3,0.3-0.5,0.4c-0.2,0.1-0.4,0.2-0.7,0.3c-0.3,0.1-0.6,0.1-0.9,0.1s-0.7-0.1-1-0.2
		s-0.5-0.3-0.8-0.5c-0.2-0.2-0.4-0.4-0.5-0.7c-0.1-0.3-0.2-0.6-0.2-0.9c0-0.5,0.1-0.9,0.3-1.2c0.2-0.3,0.5-0.6,0.8-0.8
		c0.3-0.2,0.8-0.3,1.2-0.4s1-0.1,1.6-0.1c0.1,0,0.3,0,0.4,0s0.3,0,0.4,0c0-0.3,0-0.6,0-0.9c0-0.6-0.1-1-0.4-1.2
		c-0.2-0.2-0.7-0.4-1.3-0.4c-0.2,0-0.4,0-0.6,0s-0.4,0.1-0.6,0.1s-0.4,0.1-0.6,0.2s-0.4,0.2-0.5,0.2L89.2,103.2z M91.4,109.6
		c0.3,0,0.6,0,0.8-0.1c0.2-0.1,0.4-0.2,0.6-0.3c0.2-0.1,0.3-0.3,0.4-0.4s0.2-0.3,0.2-0.4V107c-0.1,0-0.3,0-0.5,0c-0.2,0-0.3,0-0.5,0
		c-0.3,0-0.7,0-1,0.1c-0.3,0-0.6,0.1-0.8,0.2c-0.2,0.1-0.4,0.2-0.6,0.4c-0.1,0.2-0.2,0.4-0.2,0.7c0,0.4,0.1,0.7,0.4,0.9
		C90.7,109.5,91,109.6,91.4,109.6z"/>
	<path class="st1" d="M103.4,107.9c0,0.5,0,1,0,1.5c0,0.4,0.1,0.9,0.1,1.3h-0.9l-0.3-1.1h-0.1c-0.2,0.4-0.5,0.7-0.9,0.9
		s-0.9,0.4-1.4,0.4c-1.1,0-1.9-0.3-2.4-1c-0.5-0.7-0.8-1.7-0.8-3.2c0-1.4,0.3-2.4,1-3.1c0.6-0.7,1.5-1.1,2.7-1.1
		c0.4,0,0.7,0,0.9,0.1c0.2,0,0.5,0.1,0.7,0.2v-3.3h1.3V107.9z M100.1,109.7c0.5,0,1-0.1,1.3-0.4c0.3-0.3,0.5-0.7,0.7-1.3v-4
		c-0.2-0.1-0.4-0.3-0.7-0.3c-0.2-0.1-0.6-0.1-1-0.1c-0.7,0-1.3,0.2-1.7,0.7s-0.6,1.3-0.6,2.3c0,0.4,0,0.8,0.1,1.2s0.2,0.7,0.3,1
		s0.4,0.5,0.6,0.6C99.5,109.6,99.8,109.7,100.1,109.7z"/>
	<path class="st1" d="M108.1,107.3l0.4,1.5h0l0.4-1.6l1.8-4.7h1.4l-3.4,8.2h-0.5l-3.5-8.2h1.5L108.1,107.3z"/>
	<path class="st1" d="M113.6,100.2c0-0.2,0.1-0.5,0.2-0.6c0.2-0.2,0.4-0.3,0.6-0.3c0.3,0,0.5,0.1,0.7,0.3c0.2,0.2,0.3,0.4,0.3,0.6
		c0,0.2-0.1,0.4-0.3,0.6c-0.2,0.2-0.4,0.2-0.7,0.2c-0.3,0-0.5-0.1-0.6-0.2C113.6,100.6,113.6,100.4,113.6,100.2z M113.8,102.6h1.3v8
		h-1.3V102.6z"/>
	<path class="st1" d="M121.4,108.4c0-0.3-0.1-0.6-0.3-0.8s-0.4-0.3-0.7-0.5c-0.3-0.1-0.6-0.2-0.9-0.4c-0.3-0.1-0.6-0.3-0.9-0.4
		s-0.5-0.4-0.7-0.7s-0.3-0.7-0.3-1.1c0-0.8,0.2-1.3,0.7-1.7s1-0.5,1.8-0.5c0.6,0,1.1,0.1,1.4,0.2c0.4,0.1,0.7,0.2,1,0.4l-0.3,1.1
		c-0.2-0.1-0.5-0.2-0.9-0.3c-0.3-0.1-0.7-0.1-1.1-0.1c-0.5,0-0.8,0.1-1,0.2s-0.3,0.4-0.3,0.8c0,0.3,0.1,0.5,0.3,0.6
		c0.2,0.2,0.4,0.3,0.7,0.4c0.3,0.1,0.6,0.2,0.9,0.4s0.6,0.3,0.9,0.5c0.3,0.2,0.5,0.4,0.7,0.7c0.2,0.3,0.3,0.7,0.3,1.2
		c0,0.3-0.1,0.7-0.2,1c-0.1,0.3-0.3,0.6-0.5,0.8c-0.2,0.2-0.5,0.4-0.9,0.5c-0.3,0.1-0.8,0.2-1.2,0.2c-0.6,0-1.1-0.1-1.6-0.2
		s-0.8-0.3-1.1-0.4l0.4-1.1c0.2,0.1,0.6,0.3,1,0.4c0.4,0.1,0.8,0.2,1.2,0.2c0.5,0,0.8-0.1,1.1-0.3
		C121.2,109.2,121.4,108.9,121.4,108.4z"/>
	<path class="st1" d="M124.1,106.6c0-1.4,0.3-2.4,0.9-3.1c0.6-0.7,1.5-1.1,2.6-1.1c0.6,0,1.1,0.1,1.6,0.3c0.4,0.2,0.8,0.5,1.1,0.8
		s0.5,0.8,0.6,1.3s0.2,1.1,0.2,1.7c0,1.4-0.3,2.4-0.9,3.1c-0.6,0.7-1.5,1.1-2.6,1.1c-0.6,0-1.1-0.1-1.6-0.3
		c-0.4-0.2-0.8-0.5-1.1-0.8c-0.3-0.4-0.5-0.8-0.6-1.3C124.2,107.8,124.1,107.2,124.1,106.6z M125.5,106.6c0,0.4,0,0.8,0.1,1.2
		s0.2,0.7,0.4,1c0.2,0.3,0.4,0.5,0.7,0.7c0.3,0.2,0.6,0.3,1,0.3c1.5,0,2.2-1,2.2-3.1c0-0.4,0-0.8-0.1-1.2c-0.1-0.4-0.2-0.7-0.4-1
		c-0.2-0.3-0.4-0.5-0.7-0.7c-0.3-0.2-0.6-0.2-1-0.2C126.2,103.5,125.5,104.6,125.5,106.6z"/>
	<path class="st1" d="M136.9,103.8c-0.3-0.1-0.6-0.2-0.9-0.2c-0.5,0-0.8,0.1-1.1,0.4s-0.4,0.6-0.5,1v5.6h-1.3v-8h0.9l0.2,1h0.1
		c0.2-0.4,0.4-0.6,0.7-0.8c0.3-0.2,0.6-0.3,1.1-0.3c0.3,0,0.7,0.1,1,0.2L136.9,103.8z"/>
	<path class="st1" d="M142.1,108.4c0-0.3-0.1-0.6-0.3-0.8s-0.4-0.3-0.7-0.5c-0.3-0.1-0.6-0.2-0.9-0.4c-0.3-0.1-0.6-0.3-0.9-0.4
		s-0.5-0.4-0.7-0.7s-0.3-0.7-0.3-1.1c0-0.8,0.2-1.3,0.7-1.7s1-0.5,1.8-0.5c0.6,0,1.1,0.1,1.4,0.2c0.4,0.1,0.7,0.2,1,0.4l-0.3,1.1
		c-0.2-0.1-0.5-0.2-0.9-0.3c-0.3-0.1-0.7-0.1-1.1-0.1c-0.5,0-0.8,0.1-1,0.2s-0.3,0.4-0.3,0.8c0,0.3,0.1,0.5,0.3,0.6
		c0.2,0.2,0.4,0.3,0.7,0.4c0.3,0.1,0.6,0.2,0.9,0.4s0.6,0.3,0.9,0.5c0.3,0.2,0.5,0.4,0.7,0.7c0.2,0.3,0.3,0.7,0.3,1.2
		c0,0.3-0.1,0.7-0.2,1c-0.1,0.3-0.3,0.6-0.5,0.8c-0.2,0.2-0.5,0.4-0.9,0.5c-0.3,0.1-0.8,0.2-1.2,0.2c-0.6,0-1.1-0.1-1.6-0.2
		s-0.8-0.3-1.1-0.4l0.4-1.1c0.2,0.1,0.6,0.3,1,0.4c0.4,0.1,0.8,0.2,1.2,0.2c0.5,0,0.8-0.1,1.1-0.3
		C142,109.2,142.1,108.9,142.1,108.4z"/>
</g>
<g class="st0">
	<path class="st1" d="M8.6,232.6H5.1v10H3.8v-10H0.3v-1.2h8.3V232.6z"/>
	<path class="st1" d="M12.2,235.8c-0.3-0.1-0.6-0.2-0.9-0.2c-0.5,0-0.8,0.1-1.1,0.4s-0.4,0.6-0.5,1v5.6H8.4v-8h0.9l0.2,1h0.1
		c0.2-0.4,0.4-0.6,0.7-0.8c0.3-0.2,0.6-0.3,1.1-0.3c0.3,0,0.7,0.1,1,0.2L12.2,235.8z"/>
	<path class="st1" d="M13.7,235.2c0.4-0.2,0.9-0.4,1.4-0.5s1.1-0.2,1.7-0.2c0.6,0,1,0.1,1.3,0.2s0.6,0.3,0.8,0.6
		c0.2,0.2,0.3,0.5,0.4,0.8s0.1,0.6,0.1,0.9c0,0.6,0,1.3,0,1.9c0,0.6,0,1.2,0,1.7c0,0.4,0,0.8,0,1.1c0,0.4,0.1,0.7,0.2,1h-0.9
		l-0.3-1.1h-0.1c-0.1,0.1-0.2,0.3-0.4,0.4c-0.1,0.1-0.3,0.3-0.5,0.4c-0.2,0.1-0.4,0.2-0.7,0.3c-0.3,0.1-0.6,0.1-0.9,0.1
		s-0.7-0.1-1-0.2s-0.5-0.3-0.8-0.5c-0.2-0.2-0.4-0.4-0.5-0.7c-0.1-0.3-0.2-0.6-0.2-0.9c0-0.5,0.1-0.9,0.3-1.2
		c0.2-0.3,0.5-0.6,0.8-0.8c0.3-0.2,0.8-0.3,1.2-0.4s1-0.1,1.6-0.1c0.1,0,0.3,0,0.4,0s0.3,0,0.4,0c0-0.3,0-0.6,0-0.9
		c0-0.6-0.1-1-0.4-1.2c-0.2-0.2-0.7-0.4-1.3-0.4c-0.2,0-0.4,0-0.6,0s-0.4,0.1-0.6,0.1s-0.4,0.1-0.6,0.2s-0.4,0.2-0.5,0.2L13.7,235.2
		z M16,241.6c0.3,0,0.6,0,0.8-0.1c0.2-0.1,0.4-0.2,0.6-0.3c0.2-0.1,0.3-0.3,0.4-0.4s0.2-0.3,0.2-0.4V239c-0.1,0-0.3,0-0.5,0
		c-0.2,0-0.3,0-0.5,0c-0.3,0-0.7,0-1,0.1c-0.3,0-0.6,0.1-0.8,0.2c-0.2,0.1-0.4,0.2-0.6,0.4c-0.1,0.2-0.2,0.4-0.2,0.7
		c0,0.4,0.1,0.7,0.4,0.9C15.3,241.5,15.6,241.6,16,241.6z"/>
	<path class="st1" d="M26.9,242.6v-4.6c0-0.8-0.1-1.5-0.4-1.9c-0.2-0.4-0.7-0.6-1.3-0.6c-0.6,0-1,0.2-1.4,0.5
		c-0.4,0.3-0.6,0.7-0.8,1.1v5.5h-1.3v-8h0.9l0.2,1H23c0.3-0.3,0.6-0.6,1-0.8c0.4-0.2,0.9-0.3,1.5-0.3c0.4,0,0.8,0.1,1.2,0.2
		c0.3,0.1,0.6,0.3,0.8,0.5s0.4,0.6,0.5,1c0.1,0.4,0.2,1,0.2,1.6v4.8H26.9z"/>
	<path class="st1" d="M34.1,240.4c0-0.3-0.1-0.6-0.3-0.8s-0.4-0.3-0.7-0.5c-0.3-0.1-0.6-0.2-0.9-0.4c-0.3-0.1-0.6-0.3-0.9-0.4
		s-0.5-0.4-0.7-0.7s-0.3-0.7-0.3-1.1c0-0.8,0.2-1.3,0.7-1.7s1-0.5,1.8-0.5c0.6,0,1.1,0.1,1.4,0.2c0.4,0.1,0.7,0.2,1,0.4l-0.3,1.1
		c-0.2-0.1-0.5-0.2-0.9-0.3c-0.3-0.1-0.7-0.1-1.1-0.1c-0.5,0-0.8,0.1-1,0.2s-0.3,0.4-0.3,0.8c0,0.3,0.1,0.5,0.3,0.6
		c0.2,0.2,0.4,0.3,0.7,0.4c0.3,0.1,0.6,0.2,0.9,0.4s0.6,0.3,0.9,0.5c0.3,0.2,0.5,0.4,0.7,0.7c0.2,0.3,0.3,0.7,0.3,1.2
		c0,0.3-0.1,0.7-0.2,1c-0.1,0.3-0.3,0.6-0.5,0.8c-0.2,0.2-0.5,0.4-0.9,0.5c-0.3,0.1-0.8,0.2-1.2,0.2c-0.6,0-1.1-0.1-1.6-0.2
		s-0.8-0.3-1.1-0.4l0.4-1.1c0.2,0.1,0.6,0.3,1,0.4c0.4,0.1,0.8,0.2,1.2,0.2c0.5,0,0.8-0.1,1.1-0.3C33.9,241.2,34.1,240.9,34.1,240.4
		z"/>
	<path class="st1" d="M37.3,234.6h0.9l0.2,1h0.1c0.2-0.4,0.6-0.7,1-0.9c0.4-0.2,0.8-0.3,1.3-0.3c1.1,0,1.9,0.3,2.4,0.9
		c0.5,0.6,0.8,1.7,0.8,3.1c0,0.7-0.1,1.3-0.3,1.8c-0.2,0.5-0.4,1-0.7,1.4c-0.3,0.4-0.7,0.7-1.2,0.9c-0.5,0.2-1,0.3-1.5,0.3
		c-0.4,0-0.7,0-0.9-0.1s-0.5-0.1-0.7-0.2v3.3h-1.3V234.6z M40.5,235.5c-0.5,0-1,0.1-1.3,0.4c-0.3,0.3-0.5,0.7-0.7,1.3v4
		c0.2,0.1,0.4,0.3,0.7,0.3c0.2,0.1,0.6,0.1,1,0.1c0.7,0,1.3-0.3,1.8-0.8c0.4-0.5,0.6-1.4,0.6-2.4c0-0.4,0-0.8-0.1-1.2
		c-0.1-0.4-0.2-0.7-0.4-0.9c-0.2-0.2-0.4-0.4-0.6-0.6C41.2,235.6,40.9,235.5,40.5,235.5z"/>
	<path class="st1" d="M45.8,235.2c0.4-0.2,0.9-0.4,1.4-0.5s1.1-0.2,1.7-0.2c0.6,0,1,0.1,1.3,0.2s0.6,0.3,0.8,0.6
		c0.2,0.2,0.3,0.5,0.4,0.8s0.1,0.6,0.1,0.9c0,0.6,0,1.3,0,1.9c0,0.6,0,1.2,0,1.7c0,0.4,0,0.8,0,1.1c0,0.4,0.1,0.7,0.2,1h-0.9
		l-0.3-1.1h-0.1c-0.1,0.1-0.2,0.3-0.4,0.4c-0.1,0.1-0.3,0.3-0.5,0.4c-0.2,0.1-0.4,0.2-0.7,0.3c-0.3,0.1-0.6,0.1-0.9,0.1
		s-0.7-0.1-1-0.2s-0.5-0.3-0.8-0.5c-0.2-0.2-0.4-0.4-0.5-0.7c-0.1-0.3-0.2-0.6-0.2-0.9c0-0.5,0.1-0.9,0.3-1.2
		c0.2-0.3,0.5-0.6,0.8-0.8c0.3-0.2,0.8-0.3,1.2-0.4s1-0.1,1.6-0.1c0.1,0,0.3,0,0.4,0s0.3,0,0.4,0c0-0.3,0-0.6,0-0.9
		c0-0.6-0.1-1-0.4-1.2c-0.2-0.2-0.7-0.4-1.3-0.4c-0.2,0-0.4,0-0.6,0s-0.4,0.1-0.6,0.1s-0.4,0.1-0.6,0.2s-0.4,0.2-0.5,0.2L45.8,235.2
		z M48.1,241.6c0.3,0,0.6,0,0.8-0.1c0.2-0.1,0.4-0.2,0.6-0.3c0.2-0.1,0.3-0.3,0.4-0.4s0.2-0.3,0.2-0.4V239c-0.1,0-0.3,0-0.5,0
		c-0.2,0-0.3,0-0.5,0c-0.3,0-0.7,0-1,0.1c-0.3,0-0.6,0.1-0.8,0.2c-0.2,0.1-0.4,0.2-0.6,0.4c-0.1,0.2-0.2,0.4-0.2,0.7
		c0,0.4,0.1,0.7,0.4,0.9C47.3,241.5,47.7,241.6,48.1,241.6z"/>
	<path class="st1" d="M57.7,235.8c-0.3-0.1-0.6-0.2-0.9-0.2c-0.5,0-0.8,0.1-1.1,0.4s-0.4,0.6-0.5,1v5.6h-1.3v-8h0.9l0.2,1h0.1
		c0.2-0.4,0.4-0.6,0.7-0.8c0.3-0.2,0.6-0.3,1.1-0.3c0.3,0,0.7,0.1,1,0.2L57.7,235.8z"/>
	<path class="st1" d="M65.2,242c-0.3,0.3-0.7,0.5-1.2,0.6s-1,0.2-1.5,0.2c-0.6,0-1.1-0.1-1.6-0.3c-0.4-0.2-0.8-0.5-1.1-0.8
		c-0.3-0.4-0.5-0.8-0.6-1.3c-0.1-0.5-0.2-1.1-0.2-1.7c0-1.4,0.3-2.4,0.9-3.1c0.6-0.7,1.5-1.1,2.6-1.1c0.4,0,0.7,0,1.1,0.1
		c0.4,0.1,0.7,0.2,1,0.5c0.3,0.2,0.5,0.5,0.7,1c0.2,0.4,0.3,1,0.3,1.6c0,0.4,0,0.7-0.1,1.2h-5.1c0,0.5,0,0.9,0.1,1.2
		c0.1,0.4,0.2,0.7,0.4,0.9c0.2,0.3,0.5,0.4,0.8,0.6c0.3,0.1,0.7,0.2,1.2,0.2c0.4,0,0.7-0.1,1.1-0.2s0.6-0.3,0.8-0.4L65.2,242z
		 M62.4,235.5c-0.6,0-1.1,0.2-1.5,0.5c-0.4,0.3-0.6,0.9-0.7,1.7h4c0-0.8-0.2-1.4-0.5-1.7S63,235.5,62.4,235.5z"/>
	<path class="st1" d="M72.6,242.6v-4.6c0-0.8-0.1-1.5-0.4-1.9c-0.2-0.4-0.7-0.6-1.3-0.6c-0.6,0-1,0.2-1.4,0.5
		c-0.4,0.3-0.6,0.7-0.8,1.1v5.5h-1.3v-8h0.9l0.2,1h0.1c0.3-0.3,0.6-0.6,1-0.8c0.4-0.2,0.9-0.3,1.5-0.3c0.4,0,0.8,0.1,1.2,0.2
		c0.3,0.1,0.6,0.3,0.8,0.5s0.4,0.6,0.5,1c0.1,0.4,0.2,1,0.2,1.6v4.8H72.6z"/>
	<path class="st1" d="M75.2,234.6h1.2V233l1.3-0.4v2h2.2v1.1h-2.2v4.4c0,0.6,0.1,0.9,0.2,1.2c0.1,0.2,0.4,0.3,0.7,0.3
		c0.3,0,0.5,0,0.7-0.1c0.2-0.1,0.4-0.1,0.6-0.2l0.3,1c-0.3,0.1-0.6,0.3-0.9,0.3c-0.3,0.1-0.7,0.1-1.1,0.1c-0.7,0-1.1-0.2-1.4-0.6
		c-0.3-0.4-0.4-1-0.4-1.8v-4.7h-1.2V234.6z"/>
	<path class="st1" d="M85.9,234.6h0.9l0.2,1h0.1c0.2-0.4,0.6-0.7,1-0.9c0.4-0.2,0.8-0.3,1.3-0.3c1.1,0,1.9,0.3,2.4,0.9
		c0.5,0.6,0.8,1.7,0.8,3.1c0,0.7-0.1,1.3-0.3,1.8c-0.2,0.5-0.4,1-0.7,1.4c-0.3,0.4-0.7,0.7-1.2,0.9c-0.5,0.2-1,0.3-1.5,0.3
		c-0.4,0-0.7,0-0.9-0.1s-0.5-0.1-0.7-0.2v3.3h-1.3V234.6z M89.1,235.5c-0.5,0-1,0.1-1.3,0.4c-0.3,0.3-0.5,0.7-0.7,1.3v4
		c0.2,0.1,0.4,0.3,0.7,0.3c0.2,0.1,0.6,0.1,1,0.1c0.7,0,1.3-0.3,1.8-0.8c0.4-0.5,0.6-1.4,0.6-2.4c0-0.4,0-0.8-0.1-1.2
		c-0.1-0.4-0.2-0.7-0.4-0.9c-0.2-0.2-0.4-0.4-0.6-0.6C89.8,235.6,89.5,235.5,89.1,235.5z"/>
	<path class="st1" d="M98.3,235.8c-0.3-0.1-0.6-0.2-0.9-0.2c-0.5,0-0.8,0.1-1.1,0.4s-0.4,0.6-0.5,1v5.6h-1.3v-8h0.9l0.2,1h0.1
		c0.2-0.4,0.4-0.6,0.7-0.8c0.3-0.2,0.6-0.3,1.1-0.3c0.3,0,0.7,0.1,1,0.2L98.3,235.8z"/>
	<path class="st1" d="M99.6,238.6c0-1.4,0.3-2.4,0.9-3.1c0.6-0.7,1.5-1.1,2.6-1.1c0.6,0,1.1,0.1,1.6,0.3c0.4,0.2,0.8,0.5,1.1,0.8
		s0.5,0.8,0.6,1.3s0.2,1.1,0.2,1.7c0,1.4-0.3,2.4-0.9,3.1c-0.6,0.7-1.5,1.1-2.6,1.1c-0.6,0-1.1-0.1-1.6-0.3
		c-0.4-0.2-0.8-0.5-1.1-0.8c-0.3-0.4-0.5-0.8-0.6-1.3C99.6,239.8,99.6,239.2,99.6,238.6z M100.9,238.6c0,0.4,0,0.8,0.1,1.2
		s0.2,0.7,0.4,1c0.2,0.3,0.4,0.5,0.7,0.7c0.3,0.2,0.6,0.3,1,0.3c1.5,0,2.2-1,2.2-3.1c0-0.4,0-0.8-0.1-1.2c-0.1-0.4-0.2-0.7-0.4-1
		c-0.2-0.3-0.4-0.5-0.7-0.7c-0.3-0.2-0.6-0.2-1-0.2C101.6,235.5,100.9,236.6,100.9,238.6z"/>
	<path class="st1" d="M114,242.1c-0.3,0.2-0.7,0.4-1.1,0.5c-0.4,0.1-0.9,0.2-1.4,0.2c-0.6,0-1.1-0.1-1.6-0.3c-0.4-0.2-0.8-0.5-1-0.8
		s-0.5-0.8-0.6-1.3c-0.1-0.5-0.2-1.1-0.2-1.7c0-1.4,0.3-2.4,0.9-3.1c0.6-0.7,1.5-1.1,2.6-1.1c0.5,0,0.9,0,1.3,0.1s0.7,0.2,1,0.3
		l-0.4,1.1c-0.2-0.1-0.5-0.2-0.8-0.3c-0.3-0.1-0.6-0.1-1-0.1c-1.5,0-2.3,1-2.3,3.1c0,0.4,0,0.8,0.1,1.2s0.2,0.7,0.4,1
		c0.2,0.3,0.4,0.5,0.7,0.7c0.3,0.2,0.7,0.3,1.1,0.3c0.4,0,0.7-0.1,1-0.2c0.3-0.1,0.6-0.3,0.7-0.4L114,242.1z"/>
	<path class="st1" d="M121.3,242c-0.3,0.3-0.7,0.5-1.2,0.6s-1,0.2-1.5,0.2c-0.6,0-1.1-0.1-1.6-0.3c-0.4-0.2-0.8-0.5-1.1-0.8
		c-0.3-0.4-0.5-0.8-0.6-1.3c-0.1-0.5-0.2-1.1-0.2-1.7c0-1.4,0.3-2.4,0.9-3.1c0.6-0.7,1.5-1.1,2.6-1.1c0.4,0,0.7,0,1.1,0.1
		c0.4,0.1,0.7,0.2,1,0.5c0.3,0.2,0.5,0.5,0.7,1c0.2,0.4,0.3,1,0.3,1.6c0,0.4,0,0.7-0.1,1.2h-5.1c0,0.5,0,0.9,0.1,1.2
		c0.1,0.4,0.2,0.7,0.4,0.9c0.2,0.3,0.5,0.4,0.8,0.6c0.3,0.1,0.7,0.2,1.2,0.2c0.4,0,0.7-0.1,1.1-0.2s0.6-0.3,0.8-0.4L121.3,242z
		 M118.5,235.5c-0.6,0-1.1,0.2-1.5,0.5c-0.4,0.3-0.6,0.9-0.7,1.7h4c0-0.8-0.2-1.4-0.5-1.7S119.1,235.5,118.5,235.5z"/>
	<path class="st1" d="M127.1,240.4c0-0.3-0.1-0.6-0.3-0.8s-0.4-0.3-0.7-0.5c-0.3-0.1-0.6-0.2-0.9-0.4c-0.3-0.1-0.6-0.3-0.9-0.4
		s-0.5-0.4-0.7-0.7s-0.3-0.7-0.3-1.1c0-0.8,0.2-1.3,0.7-1.7s1-0.5,1.8-0.5c0.6,0,1.1,0.1,1.4,0.2c0.4,0.1,0.7,0.2,1,0.4l-0.3,1.1
		c-0.2-0.1-0.5-0.2-0.9-0.3c-0.3-0.1-0.7-0.1-1.1-0.1c-0.5,0-0.8,0.1-1,0.2s-0.3,0.4-0.3,0.8c0,0.3,0.1,0.5,0.3,0.6
		c0.2,0.2,0.4,0.3,0.7,0.4c0.3,0.1,0.6,0.2,0.9,0.4s0.6,0.3,0.9,0.5c0.3,0.2,0.5,0.4,0.7,0.7c0.2,0.3,0.3,0.7,0.3,1.2
		c0,0.3-0.1,0.7-0.2,1c-0.1,0.3-0.3,0.6-0.5,0.8c-0.2,0.2-0.5,0.4-0.9,0.5c-0.3,0.1-0.8,0.2-1.2,0.2c-0.6,0-1.1-0.1-1.6-0.2
		s-0.8-0.3-1.1-0.4l0.4-1.1c0.2,0.1,0.6,0.3,1,0.4c0.4,0.1,0.8,0.2,1.2,0.2c0.5,0,0.8-0.1,1.1-0.3
		C126.9,241.2,127.1,240.9,127.1,240.4z"/>
	<path class="st1" d="M133.8,240.4c0-0.3-0.1-0.6-0.3-0.8s-0.4-0.3-0.7-0.5c-0.3-0.1-0.6-0.2-0.9-0.4c-0.3-0.1-0.6-0.3-0.9-0.4
		s-0.5-0.4-0.7-0.7s-0.3-0.7-0.3-1.1c0-0.8,0.2-1.3,0.7-1.7s1-0.5,1.8-0.5c0.6,0,1.1,0.1,1.4,0.2c0.4,0.1,0.7,0.2,1,0.4l-0.3,1.1
		c-0.2-0.1-0.5-0.2-0.9-0.3c-0.3-0.1-0.7-0.1-1.1-0.1c-0.5,0-0.8,0.1-1,0.2s-0.3,0.4-0.3,0.8c0,0.3,0.1,0.5,0.3,0.6
		c0.2,0.2,0.4,0.3,0.7,0.4c0.3,0.1,0.6,0.2,0.9,0.4s0.6,0.3,0.9,0.5c0.3,0.2,0.5,0.4,0.7,0.7c0.2,0.3,0.3,0.7,0.3,1.2
		c0,0.3-0.1,0.7-0.2,1c-0.1,0.3-0.3,0.6-0.5,0.8c-0.2,0.2-0.5,0.4-0.9,0.5c-0.3,0.1-0.8,0.2-1.2,0.2c-0.6,0-1.1-0.1-1.6-0.2
		s-0.8-0.3-1.1-0.4l0.4-1.1c0.2,0.1,0.6,0.3,1,0.4c0.4,0.1,0.8,0.2,1.2,0.2c0.5,0,0.8-0.1,1.1-0.3
		C133.7,241.2,133.8,240.9,133.8,240.4z"/>
</g>
<g class="st0">
	<path class="st1" d="M1.4,187.4h6.1v1.2H2.7v3.8h4.4v1.2H2.7v5H1.4V187.4z"/>
	<path class="st1" d="M10.7,190.6v4.6c0,0.4,0,0.8,0.1,1.1s0.1,0.6,0.2,0.8c0.1,0.2,0.3,0.4,0.5,0.5s0.5,0.2,0.8,0.2
		c0.3,0,0.5,0,0.8-0.1c0.2-0.1,0.4-0.2,0.6-0.4c0.2-0.2,0.3-0.3,0.5-0.6c0.1-0.2,0.2-0.4,0.3-0.7v-5.3h1.3v5.7c0,0.4,0,0.8,0,1.2
		c0,0.4,0.1,0.8,0.1,1.1H15l-0.3-1.3h-0.1c-0.2,0.4-0.6,0.8-1,1s-0.9,0.4-1.6,0.4c-0.4,0-0.8-0.1-1.1-0.2c-0.3-0.1-0.6-0.3-0.8-0.5
		c-0.2-0.3-0.4-0.6-0.5-1c-0.1-0.4-0.2-1-0.2-1.6v-4.8H10.7z"/>
	<path class="st1" d="M19.6,196.6c0,0.4,0.1,0.6,0.2,0.8s0.3,0.2,0.5,0.2c0.1,0,0.3,0,0.4,0c0.2,0,0.3-0.1,0.5-0.1l0.1,1
		c-0.2,0.1-0.4,0.2-0.7,0.2c-0.3,0.1-0.6,0.1-0.8,0.1c-0.5,0-0.9-0.1-1.2-0.4c-0.3-0.3-0.5-0.7-0.5-1.4v-9.6h1.3V196.6z"/>
	<path class="st1" d="M24.2,196.6c0,0.4,0.1,0.6,0.2,0.8s0.3,0.2,0.5,0.2c0.1,0,0.3,0,0.4,0c0.2,0,0.3-0.1,0.5-0.1l0.1,1
		c-0.2,0.1-0.4,0.2-0.7,0.2c-0.3,0.1-0.6,0.1-0.8,0.1c-0.5,0-0.9-0.1-1.2-0.4c-0.3-0.3-0.5-0.7-0.5-1.4v-9.6h1.3V196.6z"/>
	<path class="st1" d="M27.2,193.4h3.9v1.2h-3.9V193.4z"/>
	<path class="st1" d="M36.8,196.4c0-0.3-0.1-0.6-0.3-0.8s-0.4-0.3-0.7-0.5c-0.3-0.1-0.6-0.2-0.9-0.4c-0.3-0.1-0.6-0.3-0.9-0.4
		s-0.5-0.4-0.7-0.7s-0.3-0.7-0.3-1.1c0-0.8,0.2-1.3,0.7-1.7s1-0.5,1.8-0.5c0.6,0,1.1,0.1,1.4,0.2c0.4,0.1,0.7,0.2,1,0.4l-0.3,1.1
		c-0.2-0.1-0.5-0.2-0.9-0.3c-0.3-0.1-0.7-0.1-1.1-0.1c-0.5,0-0.8,0.1-1,0.2s-0.3,0.4-0.3,0.8c0,0.3,0.1,0.5,0.3,0.6
		c0.2,0.2,0.4,0.3,0.7,0.4c0.3,0.1,0.6,0.2,0.9,0.4s0.6,0.3,0.9,0.5c0.3,0.2,0.5,0.4,0.7,0.7c0.2,0.3,0.3,0.7,0.3,1.2
		c0,0.3-0.1,0.7-0.2,1c-0.1,0.3-0.3,0.6-0.5,0.8c-0.2,0.2-0.5,0.4-0.9,0.5c-0.3,0.1-0.8,0.2-1.2,0.2c-0.6,0-1.1-0.1-1.6-0.2
		s-0.8-0.3-1.1-0.4l0.4-1.1c0.2,0.1,0.6,0.3,1,0.4c0.4,0.1,0.8,0.2,1.2,0.2c0.5,0,0.8-0.1,1.1-0.3C36.6,197.2,36.8,196.9,36.8,196.4
		z"/>
	<path class="st1" d="M45.8,198c-0.3,0.3-0.7,0.5-1.2,0.6s-1,0.2-1.5,0.2c-0.6,0-1.1-0.1-1.6-0.3c-0.4-0.2-0.8-0.5-1.1-0.8
		c-0.3-0.4-0.5-0.8-0.6-1.3c-0.1-0.5-0.2-1.1-0.2-1.7c0-1.4,0.3-2.4,0.9-3.1c0.6-0.7,1.5-1.1,2.6-1.1c0.4,0,0.7,0,1.1,0.1
		c0.4,0.1,0.7,0.2,1,0.5c0.3,0.2,0.5,0.5,0.7,1c0.2,0.4,0.3,1,0.3,1.6c0,0.4,0,0.7-0.1,1.2h-5.1c0,0.5,0,0.9,0.1,1.2
		c0.1,0.4,0.2,0.7,0.4,0.9c0.2,0.3,0.5,0.4,0.8,0.6c0.3,0.1,0.7,0.2,1.2,0.2c0.4,0,0.7-0.1,1.1-0.2s0.6-0.3,0.8-0.4L45.8,198z
		 M43.1,191.5c-0.6,0-1.1,0.2-1.5,0.5c-0.4,0.3-0.6,0.9-0.7,1.7h4c0-0.8-0.2-1.4-0.5-1.7S43.6,191.5,43.1,191.5z"/>
	<path class="st1" d="M51.9,191.8c-0.3-0.1-0.6-0.2-0.9-0.2c-0.5,0-0.8,0.1-1.1,0.4s-0.4,0.6-0.5,1v5.6h-1.3v-8H49l0.2,1h0.1
		c0.2-0.4,0.4-0.6,0.7-0.8c0.3-0.2,0.6-0.3,1.1-0.3c0.3,0,0.7,0.1,1,0.2L51.9,191.8z"/>
	<path class="st1" d="M55.8,195.3l0.4,1.5h0l0.4-1.6l1.8-4.7h1.4l-3.4,8.2h-0.5l-3.5-8.2h1.5L55.8,195.3z"/>
	<path class="st1" d="M61.2,188.2c0-0.2,0.1-0.5,0.2-0.6c0.2-0.2,0.4-0.3,0.6-0.3c0.3,0,0.5,0.1,0.7,0.3c0.2,0.2,0.3,0.4,0.3,0.6
		c0,0.2-0.1,0.4-0.3,0.6c-0.2,0.2-0.4,0.2-0.7,0.2c-0.3,0-0.5-0.1-0.6-0.2C61.3,188.6,61.2,188.4,61.2,188.2z M61.5,190.6h1.3v8
		h-1.3V190.6z"/>
	<path class="st1" d="M71,198.1c-0.3,0.2-0.7,0.4-1.1,0.5c-0.4,0.1-0.9,0.2-1.4,0.2c-0.6,0-1.1-0.1-1.6-0.3c-0.4-0.2-0.8-0.5-1-0.8
		s-0.5-0.8-0.6-1.3c-0.1-0.5-0.2-1.1-0.2-1.7c0-1.4,0.3-2.4,0.9-3.1c0.6-0.7,1.5-1.1,2.6-1.1c0.5,0,0.9,0,1.3,0.1s0.7,0.2,1,0.3
		l-0.4,1.1c-0.2-0.1-0.5-0.2-0.8-0.3c-0.3-0.1-0.6-0.1-1-0.1c-1.5,0-2.3,1-2.3,3.1c0,0.4,0,0.8,0.1,1.2s0.2,0.7,0.4,1
		c0.2,0.3,0.4,0.5,0.7,0.7c0.3,0.2,0.7,0.3,1.1,0.3c0.4,0,0.7-0.1,1-0.2c0.3-0.1,0.6-0.3,0.7-0.4L71,198.1z"/>
	<path class="st1" d="M78.2,198c-0.3,0.3-0.7,0.5-1.2,0.6s-1,0.2-1.5,0.2c-0.6,0-1.1-0.1-1.6-0.3c-0.4-0.2-0.8-0.5-1.1-0.8
		c-0.3-0.4-0.5-0.8-0.6-1.3c-0.1-0.5-0.2-1.1-0.2-1.7c0-1.4,0.3-2.4,0.9-3.1c0.6-0.7,1.5-1.1,2.6-1.1c0.4,0,0.7,0,1.1,0.1
		c0.4,0.1,0.7,0.2,1,0.5c0.3,0.2,0.5,0.5,0.7,1c0.2,0.4,0.3,1,0.3,1.6c0,0.4,0,0.7-0.1,1.2h-5.1c0,0.5,0,0.9,0.1,1.2
		c0.1,0.4,0.2,0.7,0.4,0.9c0.2,0.3,0.5,0.4,0.8,0.6c0.3,0.1,0.7,0.2,1.2,0.2c0.4,0,0.7-0.1,1.1-0.2s0.6-0.3,0.8-0.4L78.2,198z
		 M75.5,191.5c-0.6,0-1.1,0.2-1.5,0.5c-0.4,0.3-0.6,0.9-0.7,1.7h4c0-0.8-0.2-1.4-0.5-1.7S76,191.5,75.5,191.5z"/>
</g>
<g class="st0">
	<path class="st1" d="M3.4,323.3l-0.9-1.6H2.4l0.2,1.6v7.3H1.4v-11.4h0.7l5.4,7.5l0.8,1.5h0.1l-0.2-1.5v-7.3h1.2v11.4H8.7L3.4,323.3
		z"/>
	<path class="st1" d="M11.6,326.6c0-1.4,0.3-2.4,0.9-3.1c0.6-0.7,1.5-1.1,2.6-1.1c0.6,0,1.1,0.1,1.6,0.3c0.4,0.2,0.8,0.5,1.1,0.8
		s0.5,0.8,0.6,1.3s0.2,1.1,0.2,1.7c0,1.4-0.3,2.4-0.9,3.1c-0.6,0.7-1.5,1.1-2.6,1.1c-0.6,0-1.1-0.1-1.6-0.3
		c-0.4-0.2-0.8-0.5-1.1-0.8c-0.3-0.4-0.5-0.8-0.6-1.3C11.6,327.8,11.6,327.2,11.6,326.6z M12.9,326.6c0,0.4,0,0.8,0.1,1.2
		s0.2,0.7,0.4,1c0.2,0.3,0.4,0.5,0.7,0.7c0.3,0.2,0.6,0.3,1,0.3c1.5,0,2.2-1,2.2-3.1c0-0.4,0-0.8-0.1-1.2c-0.1-0.4-0.2-0.7-0.4-1
		c-0.2-0.3-0.4-0.5-0.7-0.7c-0.3-0.2-0.6-0.2-1-0.2C13.6,323.5,12.9,324.6,12.9,326.6z"/>
	<path class="st1" d="M30.3,330.1c-0.3,0.2-0.7,0.4-1.1,0.5c-0.4,0.1-0.9,0.2-1.4,0.2c-0.6,0-1.1-0.1-1.6-0.3
		c-0.4-0.2-0.8-0.5-1-0.8s-0.5-0.8-0.6-1.3c-0.1-0.5-0.2-1.1-0.2-1.7c0-1.4,0.3-2.4,0.9-3.1c0.6-0.7,1.5-1.1,2.6-1.1
		c0.5,0,0.9,0,1.3,0.1s0.7,0.2,1,0.3l-0.4,1.1c-0.2-0.1-0.5-0.2-0.8-0.3c-0.3-0.1-0.6-0.1-1-0.1c-1.5,0-2.3,1-2.3,3.1
		c0,0.4,0,0.8,0.1,1.2s0.2,0.7,0.4,1c0.2,0.3,0.4,0.5,0.7,0.7c0.3,0.2,0.7,0.3,1.1,0.3c0.4,0,0.7-0.1,1-0.2c0.3-0.1,0.6-0.3,0.7-0.4
		L30.3,330.1z"/>
	<path class="st1" d="M31.2,326.6c0-1.4,0.3-2.4,0.9-3.1c0.6-0.7,1.5-1.1,2.6-1.1c0.6,0,1.1,0.1,1.6,0.3c0.4,0.2,0.8,0.5,1.1,0.8
		s0.5,0.8,0.6,1.3s0.2,1.1,0.2,1.7c0,1.4-0.3,2.4-0.9,3.1c-0.6,0.7-1.5,1.1-2.6,1.1c-0.6,0-1.1-0.1-1.6-0.3
		c-0.4-0.2-0.8-0.5-1.1-0.8c-0.3-0.4-0.5-0.8-0.6-1.3C31.3,327.8,31.2,327.2,31.2,326.6z M32.6,326.6c0,0.4,0,0.8,0.1,1.2
		s0.2,0.7,0.4,1c0.2,0.3,0.4,0.5,0.7,0.7c0.3,0.2,0.6,0.3,1,0.3c1.5,0,2.2-1,2.2-3.1c0-0.4,0-0.8-0.1-1.2c-0.1-0.4-0.2-0.7-0.4-1
		c-0.2-0.3-0.4-0.5-0.7-0.7c-0.3-0.2-0.6-0.2-1-0.2C33.3,323.5,32.6,324.6,32.6,326.6z"/>
	<path class="st1" d="M45,330.6v-4.5c0-0.4,0-0.8-0.1-1.1c0-0.3-0.1-0.6-0.2-0.8c-0.1-0.2-0.3-0.4-0.5-0.5s-0.5-0.2-0.8-0.2
		c-0.5,0-0.9,0.1-1.2,0.4s-0.6,0.7-0.7,1.1v5.5h-1.3v-8h0.9l0.2,1h0.1c0.3-0.3,0.6-0.6,1-0.8c0.4-0.2,0.9-0.3,1.5-0.3
		c0.5,0,0.9,0.1,1.3,0.3c0.3,0.2,0.6,0.5,0.8,1c0.2-0.4,0.6-0.7,1-1c0.4-0.2,0.9-0.4,1.5-0.4c0.4,0,0.8,0.1,1.1,0.2
		c0.3,0.1,0.6,0.3,0.8,0.5s0.3,0.6,0.4,1c0.1,0.4,0.1,1,0.1,1.7v4.8h-1.3v-4.8c0-0.4,0-0.7-0.1-1c0-0.3-0.1-0.5-0.2-0.7
		c-0.1-0.2-0.3-0.3-0.5-0.4c-0.2-0.1-0.5-0.1-0.8-0.1c-0.5,0-0.9,0.1-1.2,0.4s-0.5,0.7-0.6,1.3v5.3H45z"/>
	<path class="st1" d="M58,330.6v-4.5c0-0.4,0-0.8-0.1-1.1c0-0.3-0.1-0.6-0.2-0.8c-0.1-0.2-0.3-0.4-0.5-0.5s-0.5-0.2-0.8-0.2
		c-0.5,0-0.9,0.1-1.2,0.4s-0.6,0.7-0.7,1.1v5.5h-1.3v-8h0.9l0.2,1h0.1c0.3-0.3,0.6-0.6,1-0.8c0.4-0.2,0.9-0.3,1.5-0.3
		c0.5,0,0.9,0.1,1.3,0.3c0.3,0.2,0.6,0.5,0.8,1c0.2-0.4,0.6-0.7,1-1c0.4-0.2,0.9-0.4,1.5-0.4c0.4,0,0.8,0.1,1.1,0.2
		c0.3,0.1,0.6,0.3,0.8,0.5s0.3,0.6,0.4,1c0.1,0.4,0.1,1,0.1,1.7v4.8h-1.3v-4.8c0-0.4,0-0.7-0.1-1c0-0.3-0.1-0.5-0.2-0.7
		c-0.1-0.2-0.3-0.3-0.5-0.4c-0.2-0.1-0.5-0.1-0.8-0.1c-0.5,0-0.9,0.1-1.2,0.4s-0.5,0.7-0.6,1.3v5.3H58z"/>
	<path class="st1" d="M66.3,320.2c0-0.2,0.1-0.5,0.2-0.6c0.2-0.2,0.4-0.3,0.6-0.3c0.3,0,0.5,0.1,0.7,0.3c0.2,0.2,0.3,0.4,0.3,0.6
		c0,0.2-0.1,0.4-0.3,0.6c-0.2,0.2-0.4,0.2-0.7,0.2c-0.3,0-0.5-0.1-0.6-0.2C66.3,320.6,66.3,320.4,66.3,320.2z M66.5,322.6h1.3v8
		h-1.3V322.6z"/>
	<path class="st1" d="M74.1,328.4c0-0.3-0.1-0.6-0.3-0.8s-0.4-0.3-0.7-0.5c-0.3-0.1-0.6-0.2-0.9-0.4c-0.3-0.1-0.6-0.3-0.9-0.4
		s-0.5-0.4-0.7-0.7s-0.3-0.7-0.3-1.1c0-0.8,0.2-1.3,0.7-1.7s1-0.5,1.8-0.5c0.6,0,1.1,0.1,1.4,0.2c0.4,0.1,0.7,0.2,1,0.4l-0.3,1.1
		c-0.2-0.1-0.5-0.2-0.9-0.3c-0.3-0.1-0.7-0.1-1.1-0.1c-0.5,0-0.8,0.1-1,0.2s-0.3,0.4-0.3,0.8c0,0.3,0.1,0.5,0.3,0.6
		c0.2,0.2,0.4,0.3,0.7,0.4c0.3,0.1,0.6,0.2,0.9,0.4s0.6,0.3,0.9,0.5c0.3,0.2,0.5,0.4,0.7,0.7c0.2,0.3,0.3,0.7,0.3,1.2
		c0,0.3-0.1,0.7-0.2,1c-0.1,0.3-0.3,0.6-0.5,0.8c-0.2,0.2-0.5,0.4-0.9,0.5c-0.3,0.1-0.8,0.2-1.2,0.2c-0.6,0-1.1-0.1-1.6-0.2
		s-0.8-0.3-1.1-0.4l0.4-1.1c0.2,0.1,0.6,0.3,1,0.4c0.4,0.1,0.8,0.2,1.2,0.2c0.5,0,0.8-0.1,1.1-0.3C73.9,329.2,74.1,328.9,74.1,328.4
		z"/>
	<path class="st1" d="M80.8,328.4c0-0.3-0.1-0.6-0.3-0.8s-0.4-0.3-0.7-0.5c-0.3-0.1-0.6-0.2-0.9-0.4c-0.3-0.1-0.6-0.3-0.9-0.4
		s-0.5-0.4-0.7-0.7s-0.3-0.7-0.3-1.1c0-0.8,0.2-1.3,0.7-1.7s1-0.5,1.8-0.5c0.6,0,1.1,0.1,1.4,0.2c0.4,0.1,0.7,0.2,1,0.4l-0.3,1.1
		c-0.2-0.1-0.5-0.2-0.9-0.3c-0.3-0.1-0.7-0.1-1.1-0.1c-0.5,0-0.8,0.1-1,0.2s-0.3,0.4-0.3,0.8c0,0.3,0.1,0.5,0.3,0.6
		c0.2,0.2,0.4,0.3,0.7,0.4c0.3,0.1,0.6,0.2,0.9,0.4s0.6,0.3,0.9,0.5c0.3,0.2,0.5,0.4,0.7,0.7c0.2,0.3,0.3,0.7,0.3,1.2
		c0,0.3-0.1,0.7-0.2,1c-0.1,0.3-0.3,0.6-0.5,0.8c-0.2,0.2-0.5,0.4-0.9,0.5c-0.3,0.1-0.8,0.2-1.2,0.2c-0.6,0-1.1-0.1-1.6-0.2
		s-0.8-0.3-1.1-0.4l0.4-1.1c0.2,0.1,0.6,0.3,1,0.4c0.4,0.1,0.8,0.2,1.2,0.2c0.5,0,0.8-0.1,1.1-0.3C80.6,329.2,80.8,328.9,80.8,328.4
		z"/>
	<path class="st1" d="M84,320.2c0-0.2,0.1-0.5,0.2-0.6c0.2-0.2,0.4-0.3,0.6-0.3c0.3,0,0.5,0.1,0.7,0.3c0.2,0.2,0.3,0.4,0.3,0.6
		c0,0.2-0.1,0.4-0.3,0.6c-0.2,0.2-0.4,0.2-0.7,0.2c-0.3,0-0.5-0.1-0.6-0.2C84.1,320.6,84,320.4,84,320.2z M84.3,322.6h1.3v8h-1.3
		V322.6z"/>
	<path class="st1" d="M87.9,326.6c0-1.4,0.3-2.4,0.9-3.1c0.6-0.7,1.5-1.1,2.6-1.1c0.6,0,1.1,0.1,1.6,0.3c0.4,0.2,0.8,0.5,1.1,0.8
		s0.5,0.8,0.6,1.3s0.2,1.1,0.2,1.7c0,1.4-0.3,2.4-0.9,3.1c-0.6,0.7-1.5,1.1-2.6,1.1c-0.6,0-1.1-0.1-1.6-0.3
		c-0.4-0.2-0.8-0.5-1.1-0.8c-0.3-0.4-0.5-0.8-0.6-1.3C87.9,327.8,87.9,327.2,87.9,326.6z M89.2,326.6c0,0.4,0,0.8,0.1,1.2
		s0.2,0.7,0.4,1c0.2,0.3,0.4,0.5,0.7,0.7c0.3,0.2,0.6,0.3,1,0.3c1.5,0,2.2-1,2.2-3.1c0-0.4,0-0.8-0.1-1.2c-0.1-0.4-0.2-0.7-0.4-1
		c-0.2-0.3-0.4-0.5-0.7-0.7c-0.3-0.2-0.6-0.2-1-0.2C89.9,323.5,89.2,324.6,89.2,326.6z"/>
	<path class="st1" d="M102,330.6v-4.6c0-0.8-0.1-1.5-0.4-1.9c-0.2-0.4-0.7-0.6-1.3-0.6c-0.6,0-1,0.2-1.4,0.5
		c-0.4,0.3-0.6,0.7-0.8,1.1v5.5h-1.3v-8h0.9l0.2,1h0.1c0.3-0.3,0.6-0.6,1-0.8c0.4-0.2,0.9-0.3,1.5-0.3c0.4,0,0.8,0.1,1.2,0.2
		c0.3,0.1,0.6,0.3,0.8,0.5s0.4,0.6,0.5,1c0.1,0.4,0.2,1,0.2,1.6v4.8H102z"/>
	<path class="st1" d="M109.2,328.4c0-0.3-0.1-0.6-0.3-0.8s-0.4-0.3-0.7-0.5c-0.3-0.1-0.6-0.2-0.9-0.4c-0.3-0.1-0.6-0.3-0.9-0.4
		s-0.5-0.4-0.7-0.7s-0.3-0.7-0.3-1.1c0-0.8,0.2-1.3,0.7-1.7s1-0.5,1.8-0.5c0.6,0,1.1,0.1,1.4,0.2c0.4,0.1,0.7,0.2,1,0.4l-0.3,1.1
		c-0.2-0.1-0.5-0.2-0.9-0.3c-0.3-0.1-0.7-0.1-1.1-0.1c-0.5,0-0.8,0.1-1,0.2s-0.3,0.4-0.3,0.8c0,0.3,0.1,0.5,0.3,0.6
		c0.2,0.2,0.4,0.3,0.7,0.4c0.3,0.1,0.6,0.2,0.9,0.4s0.6,0.3,0.9,0.5c0.3,0.2,0.5,0.4,0.7,0.7c0.2,0.3,0.3,0.7,0.3,1.2
		c0,0.3-0.1,0.7-0.2,1c-0.1,0.3-0.3,0.6-0.5,0.8c-0.2,0.2-0.5,0.4-0.9,0.5c-0.3,0.1-0.8,0.2-1.2,0.2c-0.6,0-1.1-0.1-1.6-0.2
		s-0.8-0.3-1.1-0.4l0.4-1.1c0.2,0.1,0.6,0.3,1,0.4c0.4,0.1,0.8,0.2,1.2,0.2c0.5,0,0.8-0.1,1.1-0.3
		C109,329.2,109.2,328.9,109.2,328.4z"/>
</g>
<g id="Line_1">
	<rect y="82.6" class="st2" width="612" height="2"/>
</g>
<g id="Line_4">
	<rect y="170.6" class="st2" width="612" height="2"/>
</g>
<g id="Line_6">
	<rect y="302.6" class="st2" width="612" height="2"/>
</g>
<g id="Line_2">
	<rect y="126.6" class="st2" width="612" height="2"/>
</g>
<g id="Line_7">
	<rect y="258.6" class="st2" width="612" height="2"/>
</g>
<g id="Line_3">
	<rect y="214.6" class="st2" width="612" height="2"/>
</g>
<path id="done_FILL0_wght400_GRAD0_opsz48" class="st3" d="M549.1,66.6l-5.7-5.7l1.1-1.1l4.6,4.6l9.8-9.8l1.1,1.1L549.1,66.6z"/>
<path id="done_FILL0_wght400_GRAD0_opsz48-2" class="st3" d="M407.9,66.6l-5.7-5.7l1.1-1.1l4.6,4.6l9.8-9.8l1.1,1.1L407.9,66.6z"/>
<path id="done_FILL0_wght400_GRAD0_opsz48-3" class="st3" d="M549.1,157l-5.7-5.7l1.1-1.1l4.6,4.6l9.8-9.8l1.1,1.1L549.1,157z"/>
<path id="done_FILL0_wght400_GRAD0_opsz48-4" class="st3" d="M407.9,157l-5.7-5.7l1.1-1.1l4.6,4.6l9.8-9.8l1.1,1.1L407.9,157z"/>
<path id="done_FILL0_wght400_GRAD0_opsz48-5" class="st3" d="M549.1,242.2l-5.7-5.7l1.1-1.1l4.6,4.6l9.8-9.8l1.1,1.1L549.1,242.2z"
	/>
<path id="done_FILL0_wght400_GRAD0_opsz48-6" class="st3" d="M273.7,242.2l-5.7-5.7l1.1-1.1l4.6,4.6l9.8-9.8l1.1,1.1L273.7,242.2z"
	/>
<path id="done_FILL0_wght400_GRAD0_opsz48-7" class="st3" d="M549.1,110.6l-5.7-5.7l1.1-1.1l4.6,4.6l9.8-9.8l1.1,1.1L549.1,110.6z"
	/>
<path id="done_FILL0_wght400_GRAD0_opsz48-8" class="st3" d="M407.9,110.6l-5.7-5.7l1.1-1.1l4.6,4.6l9.8-9.8l1.1,1.1L407.9,110.6z"
	/>
<path id="done_FILL0_wght400_GRAD0_opsz48-9" class="st3" d="M549.1,201l-5.7-5.7l1.1-1.1l4.6,4.6l9.8-9.8l1.1,1.1L549.1,201z"/>
<path id="done_FILL0_wght400_GRAD0_opsz48-10" class="st3" d="M549.1,286.2l-5.7-5.7l1.1-1.1l4.6,4.6l9.8-9.8l1.1,1.1L549.1,286.2z"
	/>
<path id="done_FILL0_wght400_GRAD0_opsz48-11" class="st3" d="M273.7,286.2l-5.7-5.7l1.1-1.1l4.6,4.6l9.8-9.8l1.1,1.1L273.7,286.2z"
	/>
<path id="done_FILL0_wght400_GRAD0_opsz48-12" class="st3" d="M549.1,333l-5.7-5.7l1.1-1.1l4.6,4.6l9.8-9.8l1.1,1.1L549.1,333z"/>
<path id="done_FILL0_wght400_GRAD0_opsz48-13" class="st3" d="M273.7,333l-5.7-5.7l1.1-1.1l4.6,4.6l9.8-9.8l1.1,1.1L273.7,333z"/>
<g id="Group_85" transform="translate(534.445 1195.945)">
	<path id="Path_156" class="st3" d="M0-1158.7l17-8.6v-5.7l-17,8.6L0-1158.7z"/>
	<path id="Path_157" class="st3" d="M17-1195.9L17-1195.9l-17,8.6l0,5.7l17-8.6l11.4,5.7v5.7l-11.4-5.7l-17,8.6v5.7l17-8.6l0,0
		l17,8.6v-17.2L17-1195.9z"/>
</g>
</svg>
