<svg xmlns="http://www.w3.org/2000/svg" width="166.866" height="50" viewBox="0 0 166.866 50">
  <g id="Group_97" data-name="Group 97" transform="translate(-318 -29)">
    <path id="Path_143" data-name="Path 143" d="M103.174,29.666c0,2.929-2.2,4.751-5.709,4.751H94.816v3.625H91.774V24.9h5.69c3.512,0,5.709,1.822,5.709,4.77m-3.08,0c0-1.446-.939-2.291-2.8-2.291H94.816v4.564h2.479c1.859,0,2.8-.845,2.8-2.273" transform="translate(279.6 18.583)" fill="#08134b"/>
    <path id="Path_144" data-name="Path 144" d="M124.241,35.225h-6.1l-1.164,2.817h-3.117L119.715,24.9h3.005L128.6,38.042h-3.193Zm-.958-2.31L121.2,27.881l-2.085,5.034Z" transform="translate(270.36 18.583)" fill="#08134b"/>
    <path id="Path_145" data-name="Path 145" d="M153.165,38.042l-2.536-3.662h-2.8v3.662h-3.042V24.9h5.69c3.512,0,5.709,1.822,5.709,4.77a4.275,4.275,0,0,1-2.7,4.151l2.949,4.225ZM150.31,27.375h-2.479v4.583h2.479c1.859,0,2.8-.864,2.8-2.292,0-1.446-.939-2.291-2.8-2.291" transform="translate(257.417 18.583)" fill="#08134b"/>
    <path id="Path_146" data-name="Path 146" d="M179.976,35.225h-6.1l-1.164,2.817h-3.117L175.45,24.9h3.005l5.879,13.147h-3.193Zm-.958-2.31-2.084-5.034-2.085,5.034Z" transform="translate(247.039 18.583)" fill="#08134b"/>
    <path id="Path_147" data-name="Path 147" d="M255.525,35.6v2.441H245.346V24.9h9.934v2.442H248.37v2.854h6.1v2.366h-6.1V35.6Z" transform="translate(215.342 18.583)" fill="#08134b"/>
    <path id="Path_148" data-name="Path 148" d="M270.354,24.9H273.4V35.563h6.591v2.479h-9.634Z" transform="translate(204.878 18.583)" fill="#08134b"/>
    <path id="Path_149" data-name="Path 149" d="M91.773,62.9a4.439,4.439,0,0,1,4.635-4.5,4.28,4.28,0,0,1,3.234,1.289l-.594.593a3.5,3.5,0,0,0-2.614-1.048,3.663,3.663,0,1,0,0,7.324,3.468,3.468,0,0,0,2.614-1.06l.594.593a4.3,4.3,0,0,1-3.246,1.3,4.435,4.435,0,0,1-4.622-4.5" transform="translate(279.6 4.563)" fill="#08134b"/>
    <path id="Path_150" data-name="Path 150" d="M128.435,67.373l-2.02-2.842a6.361,6.361,0,0,1-.708.038h-2.374v2.8H122.4V58.532h3.309c2.248,0,3.612,1.137,3.612,3.031a2.74,2.74,0,0,1-2.021,2.778l2.16,3.031Zm-.051-5.809c0-1.414-.935-2.223-2.7-2.223h-2.349v4.433h2.349c1.768,0,2.7-.821,2.7-2.21" transform="translate(266.786 4.509)" fill="#08134b"/>
    <path id="Path_151" data-name="Path 151" d="M158.22,66.564v.808h-6.251V58.532h6.062v.808H152.9v3.145h4.572v.8H152.9v3.284Z" transform="translate(254.413 4.509)" fill="#08134b"/>
    <path id="Path_152" data-name="Path 152" d="M.027,72.137,22.887,60.6V52.906L0,64.43Z" transform="translate(318 6.863)" fill="#051ea3"/>
    <path id="Path_153" data-name="Path 153" d="M22.887,0l-.028.014L.027,11.538,0,19.244,22.858,7.706l15.268,7.679v7.693L22.858,15.371,0,26.909v7.72L22.858,23.076l.014-.007,22.845,11.56V11.552Z" transform="translate(318 29)" fill="#051ea3"/>
    <path id="Path_154" data-name="Path 154" d="M200.523,38.042h9.634V35.563h-6.591V24.9h-3.043Z" transform="translate(234.097 18.583)" fill="#08134b"/>
    <path id="Path_155" data-name="Path 155" d="M225.977,24.9h-3.043V38.042h9.634V35.563h-6.592Z" transform="translate(224.719 18.583)" fill="#08134b"/>
  </g>
</svg>
